<?xml version="1.0" encoding="UTF-8"?>
<svg version="1.1" width="283" height="200" viewBox="0 0 283 200" xmlns="http://www.w3.org/2000/svg" xmlns:xlink="http://www.w3.org/1999/xlink">
<defs>
<filter id="a" x="0%" y="0%" width="100%" height="100%">
<feColorMatrix in="SourceGraphic" values="0 0 0 0 1 0 0 0 0 1 0 0 0 0 1 0 0 0 1 0"/>
</filter>
<mask id="ao">
<g filter="url(#a)">
<rect width="283" height="200" fill-opacity=".10196"/>
</g>
</mask>
<clipPath id="bj">
<rect width="283" height="200"/>
</clipPath>
<g id="e" clip-path="url(#bj)">
<path d="m239.89 187.88c0-6.6953-29.695-12.121-66.328-12.121-36.633 0-66.328 5.4258-66.328 12.121 0 6.6953 29.695 12.121 66.328 12.121 36.633 0 66.328-5.4258 66.328-12.121z" fill="#dc8181"/>
</g>
<mask id="an">
<g filter="url(#a)">
<rect width="283" height="200" fill-opacity=".10196"/>
</g>
</mask>
<clipPath id="ay">
<rect width="283" height="200"/>
</clipPath>
<g id="b" clip-path="url(#ay)">
<path d="m130.62 10.426c-9.8359-0.046875-19.32-2.3711-28.824-4.1758-10.57-2.0039-21.273-3.3789-32.035-4.1211-11.469-0.78906-23.195-0.85547-34.332 1.2461-11.133 2.1016-21.695 6.5469-28.105 13.344-10.883 11.516-7.918 26.914-2.1953 40.176 6.7891 15.727 17.031 30.898 32.23 43.301 10.809 8.8164 23.883 16.059 36.867 23.238 7.3359 4.0586 14.73 8.1406 23.062 11.066 7.7539 2.7109 16.145 4.3516 24.48 5.9727 8.9102 1.7305 17.82 3.4688 26.922 4.5469 29.043 3.4453 58.754 0.10938 87.754-3.5117 10.219-1.2734 20.859-2.7227 28.988-7.2969 6.3281-3.5625 10.523-8.7188 13.512-14.051 3.9141-6.9766 5.9297-15.051 1.6719-21.934-6.293-10.16-24.02-14.656-30.977-24.59-8.9102-12.734 3.3516-28.477-2.375-42.102-2.3789-5.668-7.6992-10.461-13.258-14.867-13.246-10.52-30.25-19.57-51.113-15.793-17.66 3.1953-33.328 9.6445-52.273 9.5508z" fill="#dc8181"/>
</g>
<linearGradient id="ap" x1=".50012" x2=".50012" y1="1.0003" y2="-3e-5" gradientTransform="matrix(55.148 0 0 182.81 148.19 10.121)" gradientUnits="userSpaceOnUse">
<stop stop-color="#7f7f7f" stop-opacity=".25098" offset="0"/>
<stop stop-color="#7f7f7f" stop-opacity=".12157" offset=".54"/>
<stop stop-color="#7f7f7f" stop-opacity=".10196" offset="1"/>
</linearGradient>
<mask id="ac">
<g filter="url(#a)">
<rect width="283" height="200" fill-opacity=".10196"/>
</g>
</mask>
<clipPath id="aw">
<rect width="283" height="200"/>
</clipPath>
<g id="u" clip-path="url(#aw)">
<path d="m167.77 18.867c-0.90234 0.54297-1.8477 1.168-2.168 2.0859-0.51562 1.4844 0.78516 2.9688 0.91016 4.5156 0.23438 2.8125-3.3789 5.1328-2.8438 7.918 0.36328 1.9023 2.582 3.1992 3.0117 5.0898 0.62109 2.7656-2.7812 5.2031-2.5117 8.0039 0.14063 1.4961 1.3242 2.7656 2.6641 3.6914 1.8789 1.2969 4.1328 2.1133 6.5078 2.3516-0.15625-2.4023-2.1836-4.5898-1.832-6.9805 0.23828-1.6367 1.5469-2.9766 2.3047-4.4883 1.332-2.6523 0.90234-5.7227 0.10547-8.5352-0.79297-2.8125-1.9492-5.5938-2.0078-8.4883-0.035156-1.7461 0.89453-4.3086 0.21484-5.9648-0.83203-2.0156-2.8086-0.125-4.3555 0.80078z"/>
</g>
<mask id="ab">
<g filter="url(#a)">
<rect width="283" height="200" fill-opacity=".05098"/>
</g>
</mask>
<clipPath id="av">
<rect width="283" height="200"/>
</clipPath>
<g id="t" clip-path="url(#av)">
<path d="m170.24 179.12-2.6641 2.2148s-9.4727 4.1836-8.2891-1.4766c0.32422-1.6836 0.39453-3.3945 0.20313-5.0938 2.0742-0.24609 4.5352 1.6445 4.5352 1.6445 3.4688 4.0742 4.4023 2.5312 5.1367 1.1016 0.60938 0.99609 1.0781 1.6094 1.0781 1.6094z"/>
</g>
<mask id="aa">
<g filter="url(#a)">
<rect width="283" height="200" fill-opacity=".05098"/>
</g>
</mask>
<clipPath id="au">
<rect width="283" height="200"/>
</clipPath>
<g id="s" clip-path="url(#au)">
<path d="m186.82 174.03c-0.050781 0.71484-0.14062 1.4258-0.26562 2.1289 0 0-5.8242 3.9336-6.293-0.46484-0.30469-2.8633 0.38281-4.1641 0.89844-4.7109 0.41406-0.30469 0.96484-0.36328 1.4336-0.14844 0.92969-0.41016 1.957 0.27734 2.7969 1.1562 0.57812 0.60547 1.0586 1.293 1.4297 2.0391z"/>
</g>
<mask id="z">
<g filter="url(#a)">
<rect width="283" height="200" fill-opacity=".05098"/>
</g>
</mask>
<clipPath id="at">
<rect width="283" height="200"/>
</clipPath>
<g id="r" clip-path="url(#at)">
<path d="m184.21 35.426c-0.32812 1.4375-0.51953 2.9023-0.57031 4.375-0.39453 0.12891-0.79688 0.23828-1.2031 0.32812-3.1133 0.67188-6.3789 0.10547-9.0469-1.5742 0.30078-2.8828-0.93359-6.0312-0.93359-6.0312s14.762-11.254 11.754 2.9023z"/>
</g>
<mask id="y">
<g filter="url(#a)">
<rect width="283" height="200" fill-opacity=".05098"/>
</g>
</mask>
<clipPath id="as">
<rect width="283" height="200"/>
</clipPath>
<g id="q" clip-path="url(#as)">
<path d="m169.91 53.535s-14.051-13.191-3.4492-12.215c2.4062 0.22266 4.0352-0.17578 5.1094-0.91797-2.0508 3.1367-4.3555 8.7812 6.0234 8.2461 9.5-0.48828 9.3398-3.9766 8.1562-6.2695 2.3672 0.74609 5.8789-0.29688 7.4805 2.1172 2.918 4.3984-23.32 9.0391-23.32 9.0391z"/>
</g>
<mask id="x">
<g filter="url(#a)">
<rect width="283" height="200" fill-opacity=".10196"/>
</g>
</mask>
<clipPath id="ar">
<rect width="283" height="200"/>
</clipPath>
<g id="p" clip-path="url(#ar)">
<path d="m193.46 96.945c-2.4062 2.8203-33.098-0.87891-37.586-2.1094 0.32422-1.1367 0.67969-2.2617 1.0742-3.3789 0 0 9.9336-1.5586 19.289-1.5586 7.0195 0 13.707 0.875 15.637 3.9453 0.44141 0.70312 0.84766 1.4141 1.2109 2.1211 0.16797 0.85547 0.375 0.98047 0.375 0.98047z"/>
</g>
<mask id="w">
<g filter="url(#a)">
<rect width="283" height="200" fill-opacity=".05098"/>
</g>
</mask>
<clipPath id="aq">
<rect width="283" height="200"/>
</clipPath>
<g id="o" clip-path="url(#aq)">
<path d="m161.3 52.523s0.375 3.8516-0.375 5.0508c-0.75391 1.2031-0.94141 6.7344 0 10.102"/>
</g>
<mask id="v">
<g filter="url(#a)">
<rect width="283" height="200" fill-opacity=".10196"/>
</g>
</mask>
<clipPath id="bi">
<rect width="283" height="200"/>
</clipPath>
<g id="n" clip-path="url(#bi)">
<path d="m173.56 114.55c-4.2422 3.3359-7.0898 15.168-8.5312 22.82-2.0117-10.652 6.3516-28.285 6.3516-28.285zm-5.5273 53.055c-6.7031 6.0703-11.258 1.3477-11.258 1.3477l-0.90234-3.6094c2.5352 1.1055 6.8125 1.9609 11.164-1.7109 0.45703 2.0391 0.99609 3.9727 0.99609 3.9727zm24.32-3.457c-0.12891 1.9883-0.17187 3.4883-0.17187 3.4883-5.5547 4.625-11.988 0-11.988 0s0-1.6172 0.046875-4.0039c2.4102 1.2109 6.75 2.5469 12.113 0.51562z"/>
</g>
<mask id="am">
<g filter="url(#a)">
<rect width="283" height="200" fill-opacity=".05098"/>
</g>
</mask>
<clipPath id="bh">
<rect width="283" height="200"/>
</clipPath>
<g id="m" clip-path="url(#bh)">
<path d="m165.82 61.617h11.055c1.832 0 3.3164 1.3555 3.3164 3.0273 0 1.6758-1.4844 3.0312-3.3164 3.0312h-11.055c-1.832 0-3.3164-1.3555-3.3164-3.0312 0-1.6719 1.4844-3.0273 3.3164-3.0273z"/>
</g>
<mask id="al">
<g filter="url(#a)">
<rect width="283" height="200" fill-opacity=".05098"/>
</g>
</mask>
<clipPath id="bg">
<rect width="283" height="200"/>
</clipPath>
<g id="l" clip-path="url(#bg)">
<path d="m156.08 70.949c0.48828-1.1602 1.5938-2.0898 3.0195-2.5391 0.91406-0.30078 2.0312-0.85156 2.5938-1.8555 1.0547-1.8633 2.9258-3.7812 7.7383-2.5039 4.8086 1.2812-1.3398 2.1328-1.3398 2.1328s10.961-1.2773 6.6836 1.2812-9.6211 4.0508-9.6211 4.0508l-2.6328 2.2266c-1.6055 1.3594-4.3906 1.3516-5.8828-0.09375-0.66797-0.65234-1.0234-1.5312-0.55859-2.6992z"/>
</g>
<mask id="ak">
<g filter="url(#a)">
<rect width="283" height="200" fill-opacity=".05098"/>
</g>
</mask>
<clipPath id="bf">
<rect width="283" height="200"/>
</clipPath>
<g id="k" clip-path="url(#bf)">
<path d="m192.35 76.918-1.8047 3.8906-2.3164-1.5078-6.4375-4.2148-4.3828-2.5195c-6.1797-4.1172 0-4.8047 0-4.8047-2.3164-0.91406 0-1.832 0-1.832 8.2461-1.6016 6.6992 4.3477 6.6992 4.3477l5.2227 2.4062 1.7305 0.80078z"/>
</g>
<mask id="aj">
<g filter="url(#a)">
<rect width="283" height="200" fill-opacity=".05098"/>
</g>
</mask>
<clipPath id="be">
<rect width="283" height="200"/>
</clipPath>
<g id="j" clip-path="url(#be)">
<path d="m192.35 75.445-1.9336 4.3516-2.4883-1.6875c2.2422 0.074219 4.8906-0.92969 1.168-7.4023l1.8594 0.89453z"/>
</g>
<mask id="ai">
<g filter="url(#a)">
<rect width="283" height="200" fill-opacity=".05098"/>
</g>
</mask>
<clipPath id="bd">
<rect width="283" height="200"/>
</clipPath>
<g id="i" clip-path="url(#bd)">
<path d="m192.35 28.914c0 5.0195-3.5742 9.3711-8.6133 10.48-0.36719-1.0391-0.62891-2.0742-0.35938-3.125 0.51172-2.043 2.9453-3.5312 2.6758-5.6211-0.027344-0.23438-0.11719-0.46094-0.25781-0.65234-0.54297-0.69531-1.6484-0.35156-2.5273-0.17969-2.2734 0.44141-4.7617-1.0508-5.3789-3.2227-2.0156 1.9258-4.9688 2.5898-7.6484 1.7227 0.33984-5.8047 5.3672-10.293 11.348-10.129 5.9766 0.16016 10.742 4.9141 10.75 10.727z"/>
</g>
<mask id="ah">
<g filter="url(#a)">
<rect width="283" height="200" fill-opacity=".30196"/>
</g>
</mask>
<clipPath id="bc">
<rect width="283" height="200"/>
</clipPath>
<g id="h" clip-path="url(#bc)">
<path d="m156.94 190.28c-3.0625 1.332-7.1133 0.39062-7.6445-1.8359-0.64062 2.9453 4.1484 4.3867 7.6445 2.8633 4.7148-2.0547 14.406-7.4492 14.406-7.4492s0-0.39844-0.011718-1.0273c-0.28516 0.16406-9.75 5.4102-14.395 7.4492zm33.168-7.4492c-0.29297 2.5469-2.832 3.082-7.6211 3.8438-2.4336 0.39062-3.2266-0.8125-3.375-2.2344-0.16016 1.8203 0.30469 3.8555 3.375 3.3672 5.3438-0.84766 7.8906-1.4141 7.6328-4.8125-0.003906-0.054688-0.007813-0.10938-0.011719-0.16406z" fill="#fff"/>
</g>
<mask id="ag">
<g filter="url(#a)">
<rect width="283" height="200" fill-opacity=".2"/>
</g>
</mask>
<clipPath id="bb">
<rect width="283" height="200"/>
</clipPath>
<g id="g" clip-path="url(#bb)">
<path d="m59.695 21.32c0.042969-1.7344 1.1367-3.1367 2.4727-3.1367h44.797c1.3594 0 2.4766 1.4609 2.4766 3.25 0 1.7891-1.1172 3.2539-2.4805 3.2539h-44.801c-0.86328-0.023438-1.6562 0.42578-1.9609 1.1211-0.19922 0.44922-0.33594 0.92188-0.40625 1.3984l-0.097657 0.066407zm0 22.223c0.054688-1.7344 1.3945-3.1406 3.0234-3.1406h54.75c1.6641 0 3.0273 1.4648 3.0273 3.2539s-1.3633 3.2539-3.0273 3.2539h-54.75c-1.0508 0-2.0312 0.41016-2.3984 1.1211-0.24219 0.44531-0.40625 0.91406-0.49219 1.3984l-0.125 0.066406v-5.9453l-0.007813-0.003906z" fill="#dc8181"/>
</g>
<mask id="af">
<g filter="url(#a)">
<rect width="283" height="200" fill-opacity=".2"/>
</g>
</mask>
<clipPath id="ba">
<rect width="283" height="200"/>
</clipPath>
<g id="f" clip-path="url(#ba)">
<path d="m117.18 56.062c0-0.83984-0.49609-1.5156-1.1055-1.5156s-1.1055 0.67578-1.1055 1.5156c0 0.83594 0.49609 1.5117 1.1055 1.5117s1.1055-0.67578 1.1055-1.5117z" fill="#fff"/>
</g>
<mask id="ae">
<g filter="url(#a)">
<rect width="283" height="200" fill-opacity=".2"/>
</g>
</mask>
<clipPath id="az">
<rect width="283" height="200"/>
</clipPath>
<g id="d" clip-path="url(#az)">
<path d="m122.71 56.062c0-0.83984-0.49609-1.5156-1.1055-1.5156-0.60937 0-1.1055 0.67578-1.1055 1.5156 0 0.83594 0.49609 1.5117 1.1055 1.5117 0.60938 0 1.1055-0.67578 1.1055-1.5117z" fill="#fff"/>
</g>
<mask id="ad">
<g filter="url(#a)">
<rect width="283" height="200" fill-opacity=".2"/>
</g>
</mask>
<clipPath id="ax">
<rect width="283" height="200"/>
</clipPath>
<g id="c" clip-path="url(#ax)">
<path d="m127.13 56.062c0-0.83984-0.49609-1.5156-1.1055-1.5156-0.60938 0-1.1055 0.67578-1.1055 1.5156 0 0.83594 0.49609 1.5117 1.1055 1.5117 0.60937 0 1.1055-0.67578 1.1055-1.5117z" fill="#fff"/>
</g>
</defs>
<use mask="url(#ao)" xlink:href="#e"/>
<use mask="url(#an)" xlink:href="#b"/>
<path d="m200.98 45.59c-0.15234-0.16016-0.31641-0.32031-0.48047-0.48047 1.2656-1.3242 2.582-2.6797 2.5664-4.3828-0.011719-2.0664-2.0039-3.6523-2.75-5.6055-1.0117-2.6523 0.39453-5.5039 0.96875-8.2695 0.90625-4.543-0.43359-9.2188-3.6562-12.758-0.58594-0.63672-1.2656-1.2539-2.1367-1.5078-1.3281-0.38281-2.7383 0.15234-4.1172 0.30859-4.5625 0.51953-8.7109-3.0977-13.293-2.7734-0.30078 0.011718-0.60156 0.070312-0.87891 0.18359-0.59375 0.25781-0.91797 0.83594-1.2812 1.3281-1.4258 1.9297-3.8125 2.8945-6.1914 3.875-0.29687 0.078126-0.58203 0.19922-0.84375 0.35547-0.71484 0.30859-1.4141 0.625-2.0781 0.98828-4.4922 2.4453-3.8398 5.8633-1.1914 7.9766-0.52734 2.3711-3.1484 4.457-2.6992 6.8984 0.35547 1.9102 2.5195 3.2109 2.9375 5.1094 0.24219 1.1055-0.14062 2.1602-0.67187 3.2031-5.0195 1.0703-10.695 3.0391-11.141 6.5156-0.76953 6.0469-3.0898 22.746-3.0898 22.746s-2.6914 13.375 7.5156 7.0391l-0.13281 0.35938c-1.8398 5.1211-3.0938 10.41-3.7461 15.773-0.10156 0.79688-0.3125 1.4219-0.69141 1.6289-0.13672 0.074219 0.13281 0.19531 0.72266 0.33984-0.0625 0.22266-0.13672 0.44922-0.19922 0.67578-1.1211 3.9102-1.8398 7.9102-2.1406 11.945-0.28906 3.5742-0.82422 7.1289-1.6055 10.637-2.418 11.191 0 25.547 0 25.547l5.2773 22.855 0.90234 3.9062c0.59766 0.60547 1.3242 1.0859 2.1367 1.418 0.35547 1.3984 0.59766 2.8203 0.73438 4.2539 0.015625 0.15625 0.027344 0.32031 0.039063 0.48047-0.64453 0.074219-1.2188 0.40234-1.5742 0.90234-1.8828 2.4297 0.26172 4.375-6.9844 9.2422-1.8789 1.2578-2.7812 2.4023-3.0117 3.3789-0.24609 1.0469 0.28906 1.8906 1.2461 2.4648 0.16406 0.097656 0.33594 0.18359 0.50781 0.25781l0.26563 0.11328c0.09375 0.035157 0.1875 0.066407 0.28516 0.097657h0.015625l0.28125 0.082031h0.019531l0.30078 0.074219h0.027344l0.28125 0.054687h0.039063l0.3125 0.046875h0.03125l0.28516 0.03125h0.054687l0.32031 0.023438h0.75l0.28516-0.015626h0.074219l0.32031-0.027343h0.039063l0.28516-0.039063 0.078125-0.011718 0.31641-0.054688h0.03125l0.28906-0.066406 0.082031-0.019532c0.10547-0.027343 0.20703-0.054687 0.3125-0.085937h0.019531l0.28906-0.09375 0.078125-0.027344c0.10156-0.035156 0.20312-0.070312 0.30078-0.11328 4.8359-1.9453 14.781-7.0547 14.781-7.0547v-0.96484c-0.03125-2.0938-0.26562-6.9883-1.3164-6.7969-0.35938 0.066406-0.60156 0.52734-0.85156 1.0625l-0.125-0.21875c-1.0234-1.8164-2.5039-4.9336-2.6484-7.9805 0.82812-0.55078 1.5938-1.1758 2.2852-1.8633 0 0-0.53906-2.0938-1-4.3008-0.39844-1.9141-0.73828-3.9102-0.61328-4.7031 0.26172-1.7031-3.2227-14.84-3.2227-14.84s0.35937-2.8945 1.082-6.9062c1.4062-7.8086 4.1758-19.871 8.3047-23.285 0.09375-0.074219 0.1875-0.15234 0.28516-0.21875 0 0 2.957 0.48047 5.375 15.812l0.70313 6.8242c0.19922 1.8906 0.55078 3.7656 1.0469 5.6094 0.47656 1.8164 0.98828 4.8555 0.67578 8.9727-0.30859 4.0234-0.44141 8.7617-0.49609 12.086-0.042969 2.5078-0.042969 4.2109-0.042969 4.2109 0.50391 0.39063 1.043 0.73438 1.6172 1.0273v2.2305c-0.007813 0.47656-0.21094 0.92969-0.57031 1.2695-0.37891 0.39453-0.65625 0.86719-0.80859 1.375-0.46875 0.77344-0.86719 2.0391-1.0312 4.0664-0.52344 6.5703-0.80469 5.8398-0.80469 5.8398-0.30859 0.71094-0.51172 1.4531-0.60938 2.2148-0.015625 0.14062-0.023438 0.28516-0.027344 0.42969v0.35937c0 0.03125 0.003906 0.082032 0.011719 0.14453 0 0.042968 0.007813 0.085937 0.019531 0.12891 0 0.03125 0 0.0625 0.015625 0.089844 0.015625 0.03125 0.023438 0.11719 0.039063 0.17578l0.019531 0.074219c0.019531 0.0625 0.039063 0.12109 0.058594 0.17578l0.019531 0.054687c0.023438 0.050782 0.046875 0.10547 0.074219 0.15625l0.023437 0.042969c0.03125 0.058594 0.066406 0.11719 0.10156 0.17188l0.035156 0.046875c0.039063 0.054688 0.082031 0.10938 0.125 0.16016l0.035156 0.035156c0.050781 0.054687 0.10547 0.10547 0.16406 0.15234l0.019531 0.011718c0.058594 0.050782 0.12109 0.09375 0.18359 0.13672l0.03125 0.015625c0.070312 0.042969 0.14062 0.082031 0.21875 0.11719l0.042969 0.023437c0.085937 0.035156 0.17578 0.066406 0.26562 0.09375l0.042969 0.011719c0.097657 0.03125 0.19922 0.054687 0.29688 0.074218 0.10547 0.019532 0.21484 0.035157 0.33203 0.046876h0.046874c0.11719 0 0.23828 0.015624 0.36328 0.015624h0.53516c0.14453 0 0.30078-0.023437 0.46094-0.046874 5.6406-0.72266 8.332-1.207 8.0586-4.1328-0.16016-1.7617-0.61328-4.3164-0.94922-6.0703-0.17187-0.88672-0.48437-1.75-0.92969-2.5586 0.015625-0.13672 0.027344-0.27734 0.039063-0.42188 0.097656-1.2031 0.09375-2.6523-0.30469-3.6016l0.12109-2.1289c1.3945-0.32812 2.6602-1.0234 3.6289-2 0 0 0.042969-1.5781 0.16016-3.6719 0.17578-3.2344 0.52344-7.6953 1.1836-9.4648 1.0781-2.9219 0-13.141 0-13.141s-4.0312-17.516-0.26172-25.059c3.3164-6.6484 3.2891-13.305 0.097657-19.781 0.0625-0.046876 0.12109-0.097657 0.17187-0.15625 0 0-0.80859-0.48047-0.52734-6.082 0.20703-4.2695-1.1523-8.6875-1.8086-10.527 1.0273 0.40234 2.0781 0.75 3.1484 1.0391 6.168 1.6914 6.7031-4.6445 6.7031-4.6445l1.3438-9.4883 1.5938-14.129c0.4375-1.1133 1.0195-3.8867-2.0781-7.1328zm-27.227-9.1953c0 0.16016-0.019531 0.32031-0.039062 0.47656-0.046876 0.51562-0.16406 1.0234-0.34375 1.5117 0.18359-0.66016 0.29687-1.3359 0.33594-2.0195zm16.684 33.855c0.066406 0.15234 0.12891 0.30078 0.18359 0.45703l-0.47656-0.30469c0.17578-1.0859 0.46094-2.1445 0.84766-3.1445 0.46875-1.1602 0.85547-2.375 1.1523-3.6211-0.011719 1.4414 0.042969 2.8828 0.16797 4.3164 0.38281 3.6797-1.875 2.2969-1.875 2.2969z" fill="url(#ap)"/>
<path d="m167.77 18.867c-0.90234 0.54297-1.8477 1.168-2.168 2.0859-0.51562 1.4844 0.78516 2.9688 0.91016 4.5156 0.23438 2.8125-3.3789 5.1328-2.8438 7.918 0.36328 1.9023 2.582 3.1992 3.0117 5.0898 0.62109 2.7656-2.7812 5.2031-2.5117 8.0039 0.14063 1.4961 1.3242 2.7656 2.6641 3.6914 1.8789 1.2969 4.1328 2.1133 6.5078 2.3516-0.15625-2.4023-2.1836-4.5898-1.832-6.9805 0.23828-1.6367 1.5469-2.9766 2.3047-4.4883 1.332-2.6523 0.90234-5.7227 0.10547-8.5352-0.79297-2.8125-1.9492-5.5938-2.0078-8.4883-0.035156-1.7461 0.89453-4.3086 0.21484-5.9648-0.83203-2.0156-2.8086-0.125-4.3555 0.80078z" fill="#f68080"/>
<use mask="url(#ac)" xlink:href="#u"/>
<path d="m170.24 178.42-2.3672 2.0352s-8.4258 3.8398-7.3711-1.3555c0.28906-1.5469 0.34766-3.1172 0.17969-4.6758-0.21484-2.1758-0.71875-4.3203-1.4961-6.3984l7.8945-1.3555c-1.3125 3.543 0.85156 8.0039 2.2031 10.273 0.53906 0.91797 0.95703 1.4766 0.95703 1.4766zm16.539-4.3711c-0.054688 0.71094-0.14062 1.418-0.26562 2.1172 0 0-5.7852 3.918-6.25-0.46094-0.30078-2.8516 0.37891-4.1445 0.89453-4.6875 0.30859-0.32422 0.48047-0.75391 0.48438-1.2031v-5.168l5.0938 1.6133-0.23438 4.3789c0.35547 0.91016 0.35938 2.2695 0.27734 3.4102z" fill="#ffb9b9"/>
<use mask="url(#ab)" xlink:href="#t"/>
<path d="m164.54 176.43s-3.668-3.2266-5.5-0.74219c-1.832 2.4805 0.26172 4.4688-6.8086 9.4336-7.0703 4.9609 0 8.1914 4.7148 6.2031 4.7148-1.9844 14.402-7.1992 14.402-7.1992s0-8.1914-1.3086-7.9414c-1.3086 0.24609-1.0469 6.207-5.5 0.24609z" fill="#8088a5"/>
<use mask="url(#aa)" xlink:href="#s"/>
<path d="m183.76 171.86s-2.7969-1.4531-3.3086 5.0781c-0.50781 6.5273-0.76172 5.8047-0.76172 5.8047s-2.543 5.8047 2.7969 5.0781c5.3438-0.72656 7.8906-1.2109 7.6328-4.1133-0.15234-1.7461-0.58594-4.2891-0.90234-6.0312-0.30469-1.7227-1.1367-3.3203-2.3945-4.5938-0.92188-0.9375-2.043-1.6523-3.0625-1.2227z" fill="#8088a5"/>
<path d="m192.43 140.72s1.0234 10.09 0 12.977c-0.625 1.7461-0.96094 6.1562-1.1328 9.3477-0.10938 2.0664-0.14844 3.625-0.14844 3.625-4.8672 4.8047-10.504 0-10.504 0s0-1.6797 0.042969-4.1602c0.054687-3.2852 0.17969-7.9648 0.46875-11.938 0.30078-4.0664-0.1875-7.0664-0.64062-8.8633-0.46875-1.8203-0.80469-3.6719-0.99609-5.5391l-0.66797-6.7383c-2.3047-15.141-5.1211-15.621-5.1211-15.621-0.09375 0.066406-0.18359 0.14453-0.27344 0.21875-3.9375 3.3633-6.5742 15.285-7.918 22.996-0.6875 3.9648-1.0234 6.8203-1.0234 6.8203s3.332 12.977 3.0742 14.656c-0.11719 0.78125 0.20703 2.7578 0.58594 4.6484 0.4375 2.1758 0.95312 4.2422 0.95312 4.2422-6.4062 6.4883-10.762 1.4414-10.762 1.4414l-0.85938-3.8555-5.0312-22.574s-2.3047-14.176 0-25.227c0.75-3.4688 1.2617-6.9805 1.5391-10.508 0.28906-3.9844 0.97656-7.9336 2.0469-11.801 0.3125-1.1406 0.66016-2.2773 1.0391-3.4023 0 0 9.6211-1.5703 18.676-1.5703 6.793 0 13.27 0.88281 15.137 3.9727 0.42969 0.71094 0.82422 1.4258 1.1719 2.1367 3.2461 6.5391 3.332 13.254 0.10938 19.969-3.6094 7.4453 0.23047 24.746 0.23047 24.746z" fill="#4c4c78"/>
<path d="m169.91 53.535s-14.051-12.715-3.4492-11.77c2.4062 0.21484 4.0352-0.16797 5.1094-0.88281 1.2305-0.81641 1.75-2.0625 1.8906-3.3633 0.29297-2.5938-0.90234-5.418-0.90234-5.418s14.312-10.121 11.398 2.5898c-0.32031 1.293-0.50781 2.6094-0.55859 3.9297-0.046876 2.6992 0.94922 3.7305 2.3516 4.1562 2.3672 0.71484 5.8789-0.28906 7.4805 2.0391 2.918 4.2461-23.32 8.7188-23.32 8.7188z" fill="#ffb9b9"/>
<use mask="url(#z)" xlink:href="#r"/>
<path d="m192.35 29.285c0 5.582-4.9492 10.109-11.055 10.109s-11.055-4.5273-11.055-10.109c0-0.1875 0-0.375 0.019531-0.5625 0.33984-5.457 5.3633-9.6797 11.344-9.5273 5.9766 0.15234 10.738 4.6211 10.746 10.09z" fill="#ffb9b9"/>
<use mask="url(#y)" xlink:href="#q"/>
<use mask="url(#x)" xlink:href="#p"/>
<path d="m173.45 40.402s-17.855 1.2891-18.648 7.3828c-0.75781 5.8281-3.0391 21.914-3.0391 21.914s-2.6484 12.891 7.4062 6.7969l-0.13281 0.34375c-1.8125 4.9375-3.0469 10.031-3.6875 15.195-0.10547 0.76562-0.30859 1.3711-0.67969 1.5703-1.3242 0.70312 35.445 5.3906 38.09 2.3438 0 0-0.79297-0.46875-0.53125-5.8555 0.26562-5.3945-2.1133-11.02-2.1133-11.02s-2.1172-5.625 0.79297-11.016 1.8516-7.0312 1.8516-7.0312l10.051-6.7969s2.1719-3.2969-1.7969-7.3633c-2.4102-2.4336-5.8086-3.918-9.4492-4.125l-6.9297-0.44531s7.5938 7.2422-6.6875 7.9453c-14.285 0.70312-4.4961-9.8398-4.4961-9.8398z" fill="#dc8181"/>
<use mask="url(#w)" xlink:href="#o"/>
<use mask="url(#v)" xlink:href="#n"/>
<path d="m165.82 61.617h11.055c1.832 0 3.3164 1.3555 3.3164 3.0273 0 1.6758-1.4844 3.0312-3.3164 3.0312h-11.055c-1.832 0-3.3164-1.3555-3.3164-3.0312 0-1.6719 1.4844-3.0273 3.3164-3.0273z" fill="#cdcfdb"/>
<use mask="url(#am)" xlink:href="#m"/>
<path d="m165.82 61.617h11.055c1.832 0 3.3164 1.3555 3.3164 3.0273 0 1.6758-1.4844 3.0312-3.3164 3.0312h-11.055c-1.832 0-3.3164-1.3555-3.3164-3.0312 0-1.6719 1.4844-3.0273 3.3164-3.0273z" fill="#cdcfdb"/>
<path d="m177.98 65.152c0 0.55859-0.49609 1.0078-1.1055 1.0078s-1.1055-0.44922-1.1055-1.0078 0.49609-1.0117 1.1055-1.0117 1.1055 0.45312 1.1055 1.0117z" fill="#9ca6c0"/>
<use mask="url(#al)" xlink:href="#l"/>
<path d="m154.98 70.949c0.48828-1.1602 1.5938-2.0898 3.0195-2.5391 0.91406-0.30078 2.0312-0.85156 2.5938-1.8555 1.0547-1.8633 2.9258-3.7812 7.7383-2.5039 4.8086 1.2812-1.3398 2.1328-1.3398 2.1328s10.961-1.2773 6.6836 1.2812-9.6211 4.0508-9.6211 4.0508l-2.6328 2.2266c-1.6055 1.3594-4.3906 1.3516-5.8828-0.09375-0.66797-0.65234-1.0234-1.5312-0.55859-2.6992z" fill="#ffb9b9"/>
<use mask="url(#ak)" xlink:href="#k"/>
<path d="m193.46 75.906-1.8047 3.8906-2.3164-1.5078-6.4375-4.2148-4.3828-2.5156c-6.1797-4.1211 0-4.8086 0-4.8086-2.3164-0.91406 0-1.8281 0-1.8281 8.2461-1.6055 6.6992 4.3477 6.6992 4.3477l5.2227 2.4062 1.7305 0.79688z" fill="#ffb9b9"/>
<use mask="url(#aj)" xlink:href="#j"/>
<path d="m202.85 51.516 0.55859 1.9062-1.7227 14.07-1.4492 9.4375s-0.58203 6.293-7.2578 4.5977c-6.6758-1.6914-7.2578-3.3867-7.2578-3.3867s9.5781 2.6641 3.4844-6.7773c0 0 3.4805 1.4531 2.9023-2.418-0.58203-3.875 0-10.652 0-10.652z" fill="#dc8181"/>
<use mask="url(#ai)" xlink:href="#i"/>
<path d="m177.6 26.492c0.62891 2.082 3.1758 3.5078 5.5 3.0859 0.89844-0.16406 2.0273-0.49219 2.582 0.17188 0.14062 0.18359 0.23047 0.39844 0.25 0.625 0.28125 2-2.1992 3.4258-2.7344 5.3789-0.55078 2.0156 1.0508 3.9609 1.4062 6.0117 0.1875 1.125 0 2.2656 0 3.4023 0 1.1328 0.29688 2.3516 1.2188 3.1094 0.92578 0.75781 2.6289 0.76953 3.2539-0.21484 2.957 1.4219 1.7773 5.832 4.0234 8.0898 1.2383 1.2422 3.2734 1.543 5.1133 1.3828 0.42969-0.003906 0.84766-0.12891 1.1992-0.35156 0.30469-0.27344 0.51172-0.625 0.58984-1.0039 0.46484-1.5977 0.38281-3.2852-0.22656-4.8438-0.29688-0.74219-0.71875-1.4922-0.60938-2.2773 0.082031-0.61328 0.48438-1.1445 0.91406-1.625 1.4102-1.5938 3.3359-3.1367 3.3242-5.1836-0.011719-2.0508-1.9648-3.5898-2.6914-5.5039-0.99219-2.6172 0.38281-5.418 0.94922-8.1367 0.89453-4.4609-0.41406-9.0547-3.5781-12.562-0.57031-0.625-1.2344-1.2305-2.1016-1.4805-1.2969-0.375-2.6758 0.14844-4.0312 0.30078-4.4688 0.51172-8.5195-3.043-13.004-2.7266-0.30078 0.011719-0.58984 0.070313-0.86328 0.17969-0.58203 0.25781-0.89453 0.82422-1.2539 1.3125-1.9805 2.6914-5.8711 3.4609-8.9219 5.1289-8.8906 4.875 2.8789 13.699 9.6914 7.7305z" fill="#f68080"/>
<use mask="url(#ah)" xlink:href="#h"/>
<path d="m148.13 33.441c-0.074218-1.7461-1.75-3.1328-3.793-3.1367h-68.582c-1.9492-0.019532-3.6055 1.2031-3.875 2.8516-0.12891 0.92578 0.20703 1.8516 0.92969 2.5508 0.71875 0.69531 1.7539 1.0977 2.8438 1.1016h68.91c1.2305-0.09375 2.4023 0.46094 2.9688 1.3984 0.21094 0.35547 0.35938 0.73047 0.44141 1.1211l0.15625 0.066406zm1.1055 22.223c-0.074219-1.7461-1.7656-3.1328-3.832-3.1406h-29.812c-1.9688-0.015626-3.6445 1.207-3.9141 2.8555-0.12891 0.92578 0.21094 1.8516 0.9375 2.5508 0.73047 0.69531 1.7734 1.0938 2.8711 1.0977h30.152c1.2383-0.089844 2.4219 0.46484 2.9922 1.4023 0.21484 0.35547 0.36328 0.73047 0.44922 1.1211l0.15625 0.066407z" fill="#dc8181"/>
<use mask="url(#ag)" xlink:href="#g"/>
<use mask="url(#af)" xlink:href="#f"/>
<use mask="url(#ae)" xlink:href="#d"/>
<use mask="url(#ad)" xlink:href="#c"/>
</svg>
