<svg width="144" height="144" fill="none" xmlns="http://www.w3.org/2000/svg"><g clip-path="url(#clip0)"><path d="M72.002 144.004c39.766 0 72.002-32.236 72.002-72.002S111.768 0 72.002 0 0 32.236 0 72.002s32.236 72.002 72.002 72.002z" fill="#F2F2F2"/><path d="M101.156 94.79a3.803 3.803 0 100-7.608 3.803 3.803 0 000 7.607zM46.511 64.215c1.408 1.408 2.113 3.523 2.116 6.347v10.953H43.08v-10.1c0-1.516-.315-2.648-.943-3.397a3.318 3.318 0 00-2.684-1.12 3.956 3.956 0 00-3.095 1.264c-.757.84-1.136 2.09-1.136 3.75v9.603h-5.548v-10.1c0-3.02-1.21-4.529-3.627-4.529a3.906 3.906 0 00-3.058 1.264c-.757.84-1.136 2.09-1.136 3.75v9.602h-5.548V62.383H21.6v2.202a7.08 7.08 0 012.614-1.848 8.861 8.861 0 013.395-.638 8.267 8.267 0 013.664.799 6.478 6.478 0 012.63 2.33 7.87 7.87 0 012.972-2.314 9.38 9.38 0 013.926-.823c2.396.006 4.299.714 5.71 2.124zM57.497 80.535a9.335 9.335 0 01-3.75-3.502 10.225 10.225 0 010-10.171 9.389 9.389 0 013.75-3.503 12.27 12.27 0 0110.83 0 9.468 9.468 0 013.733 3.503 10.254 10.254 0 010 10.17 9.422 9.422 0 01-3.734 3.503 12.232 12.232 0 01-10.829 0zm8.924-4.73c.913-.96 1.37-2.245 1.37-3.856 0-1.61-.457-2.899-1.37-3.865a4.612 4.612 0 00-3.499-1.436 4.683 4.683 0 00-3.523 1.436 6.063 6.063 0 000 7.718 4.69 4.69 0 003.523 1.44 4.614 4.614 0 003.499-1.436zM98.007 55.13v26.384H92.71v-2.206c-1.372 1.646-3.363 2.476-5.972 2.49a9.924 9.924 0 01-4.89-1.21 8.676 8.676 0 01-3.433-3.45 11.467 11.467 0 010-10.384 8.701 8.701 0 013.433-3.45 9.963 9.963 0 014.898-1.206c2.44 0 4.348.77 5.725 2.31V55.13h5.536zm-6.824 20.675a6.063 6.063 0 000-7.718 4.989 4.989 0 00-6.997 0c-.925.963-1.388 2.25-1.388 3.861 0 1.61.463 2.896 1.388 3.857a4.98 4.98 0 006.997 0zM121.708 73.512h-14.473a4.501 4.501 0 001.849 2.807 6.125 6.125 0 003.626 1.034 7.35 7.35 0 002.651-.445 6.488 6.488 0 002.152-1.404l2.951 3.199c-1.802 2.06-4.434 3.092-7.894 3.095a12.515 12.515 0 01-5.726-1.264 9.25 9.25 0 01-3.84-3.503 9.653 9.653 0 01-1.35-5.083 9.767 9.767 0 011.334-5.067 9.355 9.355 0 013.659-3.523 11.366 11.366 0 0110.29-.054 8.846 8.846 0 013.577 3.47 10.342 10.342 0 011.296 5.244c.005.07-.033.568-.102 1.494zm-12.978-6.174a4.545 4.545 0 00-1.564 2.918h9.421a4.58 4.58 0 00-1.564-2.88 4.668 4.668 0 00-3.128-1.087 4.784 4.784 0 00-3.165 1.07v-.02zM125.457 55.13h5.549v26.384h-5.549V55.13zM24.725 89.434a2.468 2.468 0 01.622 1.823v3.231H24.33v-3.115a1.766 1.766 0 00-.379-1.235 1.378 1.378 0 00-1.074-.412 1.617 1.617 0 00-1.235.482 1.963 1.963 0 00-.453 1.383v2.88h-1.016v-3.115a1.766 1.766 0 00-.379-1.235 1.379 1.379 0 00-1.074-.411 1.614 1.614 0 00-1.235.481c-.325.385-.49.88-.457 1.383v2.881h-1.016v-5.58h.975v.822c.21-.29.494-.52.823-.662a2.673 2.673 0 011.132-.227 2.47 2.47 0 011.165.264c.335.176.608.45.782.786.218-.332.524-.596.885-.762a2.882 2.882 0 011.276-.275 2.285 2.285 0 011.675.613zM31.69 89.392a2.215 2.215 0 01.617 1.704v3.391h-.963v-.74a1.614 1.614 0 01-.725.6 2.815 2.815 0 01-1.12.206 2.338 2.338 0 01-1.51-.457 1.568 1.568 0 01-.025-2.387 2.65 2.65 0 011.717-.453h1.61v-.201a1.3 1.3 0 00-.38-1.005 1.605 1.605 0 00-1.123-.35c-.332 0-.662.054-.976.161a2.61 2.61 0 00-.823.44l-.412-.761c.309-.243.66-.425 1.038-.535.416-.126.85-.188 1.284-.185a2.54 2.54 0 011.79.572zm-1.013 4.116c.28-.172.495-.431.613-.737v-.782h-1.568c-.86 0-1.293.288-1.293.868a.79.79 0 00.33.667c.269.178.588.263.91.243.353.01.703-.08 1.008-.26zM39.53 89.442a2.43 2.43 0 01.63 1.815v3.231h-1.016v-3.116a1.728 1.728 0 00-.412-1.235 1.48 1.48 0 00-1.124-.411 1.753 1.753 0 00-1.304.481 1.9 1.9 0 00-.478 1.383v2.882H34.81v-5.598h.976v.848c.207-.295.492-.526.823-.667a2.88 2.88 0 011.194-.235 2.309 2.309 0 011.729.622zM46.516 89.393a2.215 2.215 0 01.617 1.704v3.391h-.963v-.74a1.6 1.6 0 01-.729.6 2.795 2.795 0 01-1.115.206 2.338 2.338 0 01-1.51-.457 1.564 1.564 0 01-.03-2.387 2.671 2.671 0 011.72-.453h1.61v-.201a1.289 1.289 0 00-.383-1.005 1.605 1.605 0 00-1.123-.35c-.33 0-.659.055-.972.16a2.561 2.561 0 00-.823.441l-.411-.761c.307-.244.66-.426 1.037-.535.416-.126.85-.188 1.284-.186a2.544 2.544 0 011.79.573zm-1.013 4.116c.28-.172.495-.431.613-.737v-.782h-1.568c-.864 0-1.292.288-1.292.868a.776.776 0 00.329.667c.269.178.588.263.91.243.353.009.702-.08 1.008-.26zM55.052 88.873v4.853c0 .98-.243 1.709-.732 2.178a3.03 3.03 0 01-2.182.704 5.087 5.087 0 01-1.515-.219 3.034 3.034 0 01-1.169-.617l.49-.786c.285.241.615.423.972.535.382.131.784.198 1.19.198a2.006 2.006 0 001.464-.47 1.93 1.93 0 00.474-1.42v-.444c-.238.285-.541.509-.885.65-.362.147-.75.221-1.14.218a3.058 3.058 0 01-1.457-.346 2.598 2.598 0 01-1.025-.963 2.881 2.881 0 010-2.832c.245-.409.6-.74 1.025-.959.45-.23.95-.345 1.457-.337.405-.004.808.076 1.181.234.354.147.664.384.897.688v-.869l.955.004zm-1.934 4.26a1.778 1.778 0 00.938-1.601 1.734 1.734 0 00-.54-1.32 2.19 2.19 0 00-2.79 0 1.732 1.732 0 00-.53 1.333 1.778 1.778 0 00.938 1.6c.309.16.652.24 1 .231.346.004.687-.08.992-.242h-.008zM62.687 92.02h-4.556a1.773 1.773 0 00.654 1.193c.394.307.884.466 1.383.448a2.083 2.083 0 001.622-.675l.56.655a2.47 2.47 0 01-.947.679c-.403.16-.834.24-1.268.235a3.343 3.343 0 01-1.58-.367 2.6 2.6 0 01-1.062-1.025 2.918 2.918 0 01-.379-1.481 2.997 2.997 0 01.367-1.474 2.615 2.615 0 011.008-1.02c.44-.25.939-.377 1.445-.367.503-.01 1 .116 1.436.366.418.24.759.595.984 1.021.245.464.368.982.358 1.507-.002.101-.01.203-.025.304zm-3.976-1.894c-.332.302-.54.717-.58 1.164h3.605a1.827 1.827 0 00-.576-1.16 1.89 1.89 0 00-2.449 0v-.004zM73.459 89.434a2.469 2.469 0 01.622 1.823v3.231h-1.017v-3.116c.033-.444-.1-.884-.375-1.234a1.383 1.383 0 00-1.078-.412 1.6 1.6 0 00-1.235.481c-.325.385-.49.88-.457 1.383v2.882h-1.016v-3.116a1.766 1.766 0 00-.38-1.235 1.379 1.379 0 00-1.073-.412 1.617 1.617 0 00-1.235.482 1.963 1.963 0 00-.453 1.383v2.881h-1.017v-5.581h.972v.823c.21-.291.494-.52.823-.663a2.691 2.691 0 011.136-.226 2.49 2.49 0 011.165.263c.333.173.606.443.782.774.218-.33.525-.594.885-.761a2.882 2.882 0 011.276-.276 2.285 2.285 0 011.675.626zM81.679 92.018h-4.557a1.755 1.755 0 00.65 1.194c.395.307.884.465 1.384.448a2.058 2.058 0 001.621-.675l.564.655a2.47 2.47 0 01-.95.679c-.402.16-.832.24-1.264.234a3.33 3.33 0 01-1.58-.366 2.586 2.586 0 01-1.067-1.025 2.915 2.915 0 01-.374-1.482 2.956 2.956 0 01.366-1.473c.233-.427.58-.781 1.004-1.02a2.84 2.84 0 011.45-.367c.502-.01.999.117 1.436.366.416.242.757.595.983 1.02a3.145 3.145 0 01.334 1.812zm-3.98-1.893a1.79 1.79 0 00-.577 1.165h3.602a1.79 1.79 0 00-.576-1.161 1.89 1.89 0 00-2.47 0l.02-.004zM88.446 89.442a2.43 2.43 0 01.63 1.815v3.23h-1.017v-3.115a1.728 1.728 0 00-.391-1.235 1.482 1.482 0 00-1.124-.412 1.753 1.753 0 00-1.305.482 1.901 1.901 0 00-.477 1.383v2.881h-1.017v-5.597h.976v.847c.207-.294.492-.525.823-.666a2.88 2.88 0 011.194-.235 2.309 2.309 0 011.708.622zM95.167 94.159c-.161.135-.35.234-.551.292a2.21 2.21 0 01-.68.103 1.804 1.804 0 01-1.313-.457 1.75 1.75 0 01-.465-1.305V89.71h-.955v-.823h.955v-1.235h1.017v1.235h1.61v.823h-1.61v3.042a.98.98 0 00.226.7.863.863 0 00.655.243c.287.007.568-.086.794-.264l.317.729zM108.631 94.184a2.711 2.711 0 01-1.054-1.025 3.044 3.044 0 010-2.955 2.638 2.638 0 011.054-1.017c.47-.25.998-.377 1.531-.366.472-.008.939.096 1.362.305.392.197.715.508.926.893l-.773.498a1.749 1.749 0 00-.647-.618 1.834 1.834 0 00-.868-.201 2.016 2.016 0 00-.988.243 1.75 1.75 0 00-.691.695 2.113 2.113 0 00-.247 1.033c-.008.364.077.724.247 1.046.158.292.398.532.691.691.302.166.643.25.988.243.302.005.6-.064.868-.202a1.7 1.7 0 00.659-.6l.774.485a2.214 2.214 0 01-.926.897 2.93 2.93 0 01-1.363.313 3.124 3.124 0 01-1.543-.358zM115.216 94.183a2.722 2.722 0 01-1.045-1.025 3.1 3.1 0 010-2.955c.246-.43.609-.783 1.045-1.017a3.05 3.05 0 011.507-.366 3.015 3.015 0 011.498.366c.434.236.793.588 1.037 1.017a3.066 3.066 0 010 2.955 2.72 2.72 0 01-1.037 1.025 3.017 3.017 0 01-1.498.37 3.051 3.051 0 01-1.507-.37zm2.47-.77c.287-.165.521-.407.675-.7a2.311 2.311 0 000-2.057 1.748 1.748 0 00-.675-.696 2.057 2.057 0 00-1.939 0 1.789 1.789 0 00-.679.696 2.285 2.285 0 000 2.058 1.8 1.8 0 00.679.7 2.029 2.029 0 001.939 0zM130.376 89.433a2.48 2.48 0 01.621 1.823v3.232h-1.016v-3.116a1.79 1.79 0 00-.375-1.235 1.391 1.391 0 00-1.078-.411 1.6 1.6 0 00-1.235.481c-.327.384-.491.88-.457 1.383v2.882h-.988v-3.116a1.765 1.765 0 00-.379-1.235 1.365 1.365 0 00-1.074-.412 1.618 1.618 0 00-1.235.482c-.325.384-.488.88-.452 1.383v2.881h-1.021v-5.581h.975v.823c.21-.291.494-.52.823-.663a2.694 2.694 0 011.136-.226 2.49 2.49 0 011.165.263c.334.173.607.443.782.774a2.14 2.14 0 01.885-.761 2.881 2.881 0 011.276-.276 2.282 2.282 0 011.647.625z" fill="#C5C5C5"/></g><defs><clipPath id="clip0"><path fill="#fff" d="M0 0h144v144H0z"/></clipPath></defs></svg>
