<svg xmlns="http://www.w3.org/2000/svg" width="283" height="200" viewBox="0 0 283 200">
    <defs>
        <linearGradient id="prefix__a" x1="49.999%" x2="49.999%" y1="100%" y2="0%">
            <stop offset="0%" stop-color="gray" stop-opacity=".25"/>
            <stop offset="54%" stop-color="gray" stop-opacity=".12"/>
            <stop offset="100%" stop-color="gray" stop-opacity=".1"/>
        </linearGradient>
    </defs>
    <g fill="none" fill-rule="evenodd" transform="translate(1)">
        <path fill="#DC8282" fill-rule="nonzero" d="M277.532 135.457c-6.54 13.47-19.823 22.476-33.587 28.415-18.53 8-38.937 11.172-59.062 9.83-3.528-.234-7.044-.609-10.55-1.123-12.175-1.773-24.045-5.223-35.27-10.252-3.24-1.457-6.415-3.047-9.523-4.77-5.192-2.873-10.167-6.12-14.885-9.717-1.186-.904-2.356-1.832-3.51-2.782-.8-.658-1.593-1.332-2.398-1.985-1.699-1.379-3.447-2.689-5.397-3.67-.588-.295-1.191-.561-1.807-.795-6.174-2.345-13.294-1.46-19.722.368-4.889 1.391-9.655 3.296-14.54 4.654-2.172.623-4.386 1.093-6.624 1.406-4.998.632-10.074.187-14.885-1.305l-.41-.128c-.69-.216-1.374-.453-2.052-.71l-.41-.157c-.657-.252-1.3-.523-1.928-.813l-.411-.187c-.657-.305-1.3-.627-1.928-.966-.227-.118-.45-.246-.672-.366-3.577-1.994-6.828-4.52-9.64-7.493-.082-.08-.158-.164-.247-.246-.391-.422-.776-.852-1.147-1.292-.138-.162-.276-.325-.411-.492-.442-.537-.868-1.087-1.278-1.649-.062-.08-.12-.164-.18-.245-1.68-2.322-3.075-4.838-4.15-7.493-.035-.081-.067-.165-.097-.246-.328-.843-.627-1.701-.898-2.573-.11-.363-.217-.737-.31-1.1-.032-.109-.062-.22-.089-.327-1.359-5.34-1.514-10.892-1.514-16.411v-1.93c.04-8.927.177-18.007 1.497-26.812 0-.061.017-.123.027-.182.442-2.964 1.042-5.902 1.8-8.802.792-3.043 1.805-6.024 3.03-8.92 3.036-7.127 7.45-13.612 12.351-19.623C49.052 19.442 65.243 6.745 84.195 1.992c20.42-5.119 43.117-.214 59.59 12.877 5.021 3.99 9.534 8.717 15.174 11.776 4.924 2.664 10.687 3.767 15.96 1.671 4.358-1.732 7.194-2.592 12.088-2.33 10.132.573 20.12 2.661 29.631 6.196.384.14.768.285 1.15.43 24.793 9.468 46.106 28.28 57.184 52.453.294.64.579 1.283.854 1.932 6.606 15.4 8.994 33.45 1.706 48.46z" opacity=".1"/>
        <ellipse cx="28.5" cy="180.5" fill="#DC8282" fill-rule="nonzero" opacity=".1" rx="21.5" ry="3.5"/>
        <rect width="235" height="133" x="28" y="26" fill="url(#prefix__a)" fill-rule="nonzero" rx="12.49"/>
        <rect width="234" height="131" x="28" y="28" fill="#FFF" fill-rule="nonzero" rx="12.49"/>
        <rect width="234" height="131" x="28" y="28" fill="#FFF" fill-rule="nonzero" rx="12.49"/>
        <rect width="234" height="131" x="28" y="28" fill="#FFF" fill-rule="nonzero" opacity=".04" rx="12.49"/>
        <path fill="#5A5773" fill-rule="nonzero" d="M260.822 26H29.188c-.656 0-1.188.6-1.188 1.34V33h234v-5.66c0-.736-.526-1.334-1.178-1.34z"/>
        <g fill="#FFF" fill-rule="nonzero" transform="translate(30 29)">
            <ellipse cx="1.743" cy=".974" rx="1.724" ry="1"/>
            <ellipse cx="6.386" cy=".974" rx="1.724" ry="1"/>
            <ellipse cx="11.029" cy=".974" rx="1.724" ry="1"/>
        </g>
        <path fill="#DC8282" fill-rule="nonzero" d="M48 44H110V50H48z" opacity=".2"/>
        <path fill="#5A5773" fill-rule="nonzero" d="M48 65H243V147H48z" opacity=".1"/>
        <path fill="#000" fill-rule="nonzero" d="M161.502 70.076h-3.305v-6.51c0-7.347-5.776-13.454-13.02-13.565-3.528-.038-6.926 1.354-9.437 3.867-2.512 2.513-3.931 5.939-3.942 9.517v6.69H128.5c-3.034.01-5.49 2.502-5.5 5.579v26.768c.01 3.077 2.466 5.568 5.5 5.578h33.002c3.034-.01 5.49-2.502 5.498-5.578V75.654c-.008-3.077-2.464-5.569-5.498-5.578zm-14.574 17.401v9.588c.007 1.053-.793 1.931-1.83 2.008-.526.025-1.04-.17-1.421-.539-.382-.369-.598-.88-.598-1.415v-9.647c-1.837-.909-2.813-2.983-2.353-5.003.46-2.02 2.233-3.451 4.278-3.451 2.044 0 3.818 1.43 4.278 3.45.46 2.02-.516 4.095-2.354 5.004v.005zm7.425-17.401h-18.706v-6.691c0-5.236 4.186-9.481 9.35-9.481 5.163 0 9.349 4.245 9.349 9.481l.007 6.69z" opacity=".1"/>
        <path fill="#DC8282" fill-rule="nonzero" d="M161.502 70.076h-3.305v-6.51c0-7.347-5.776-13.454-13.02-13.565-3.528-.038-6.926 1.354-9.437 3.867-2.512 2.513-3.931 5.939-3.942 9.517v6.69H128.5c-3.034.01-5.49 2.502-5.5 5.579v26.768c.01 3.077 2.466 5.568 5.5 5.578h33.002c3.034-.01 5.49-2.502 5.498-5.578V75.654c-.008-3.077-2.464-5.569-5.498-5.578zm-14.574 17.401v9.588c.007 1.053-.793 1.931-1.83 2.008-.526.025-1.04-.17-1.421-.539-.382-.369-.598-.88-.598-1.415v-9.647c-1.837-.909-2.813-2.983-2.353-5.003.46-2.02 2.233-3.451 4.278-3.451 2.044 0 3.818 1.43 4.278 3.45.46 2.02-.516 4.095-2.354 5.004v.005zm7.425-17.401h-18.706v-6.691c0-5.236 4.186-9.481 9.35-9.481 5.163 0 9.349 4.245 9.349 9.481l.007 6.69z"/>
        <path fill="#5A5773" fill-rule="nonzero" d="M223 58H243V63H223z" opacity=".1"/>
        <path fill="#000" fill-rule="nonzero" d="M249.908 199.589c-.4.747-3.2.256-3.777.215-.578-.041-4.659-1.977-4.716-2.43-.057-.453-1.47-1.387-1.866-1.387-.396 0-2.32-1.442-2.491-1.654-.043-.106-.063-.22-.057-.333l2.659 1.586s1.698 1.023 2.151 1.63c.454.605 4.024 1.866 4.32 1.892.22.02 2.564-.404 3.844-.225.049.237.025.481-.067.706z" opacity=".1"/>
        <path d="M214 194.648s-1.133 1.369-2.647 1.474c-.83.006-1.51.643-1.546 1.449 0 0 .264.833-3.397 1.988-2.21.692-3.6.474-4.41 0 2.083-.21 6.687-1.49 7.148-1.932.553-.537 1.244-2.014 1.712-2.04.326-.02 1.98-.988 2.973-1.587l.167.648z"/>
        <path fill="#000" fill-rule="nonzero" d="M214 194.648s-1.133 1.369-2.647 1.474c-.83.006-1.51.643-1.546 1.449 0 0 .264.833-3.397 1.988-2.21.692-3.6.474-4.41 0 2.083-.21 6.687-1.49 7.148-1.932.553-.537 1.244-2.014 1.712-2.04.326-.02 1.98-.988 2.973-1.587l.167.648z" opacity=".1"/>
        <path fill="#000" fill-rule="nonzero" stroke="#DC8282" d="M237 187s4.524.454 4.974.907c.449.454-4.974-.907-4.974-.907zM209 184s1.47 1.306.845 1.907c-.624.6-.845-1.907-.845-1.907zM212 187.874s1.372-1.551 1.92-.52c.55 1.03-1.92.52-1.92.52z" opacity=".1"/>
        <path fill="#535461" fill-rule="nonzero" d="M28 111H30V144H28z"/>
        <path fill="#3F3D56" fill-rule="nonzero" d="M38.996 144.09l-.089 1.396-.123 1.97-.052.82-.123 1.972-.054.822-.124 1.969-1.411 22.4c-.125 2.001-1.812 3.561-3.851 3.561H25.83c-2.039 0-3.725-1.56-3.849-3.561l-1.419-22.4-.123-1.97-.052-.82-.12-1.977-.052-.822-.123-1.969-.09-1.395c-.033-.542.162-1.073.54-1.468S21.448 142 22 142h15.002c.553 0 1.08.224 1.458.62.378.396.572.929.536 1.47z"/>
        <path fill="#9D9CB5" fill-rule="nonzero" d="M39 145L38.876 147 20.124 147 20 145zM39 148L38.873 150 20.129 150 20 148zM39 152L38.878 154 21.125 154 21 152z"/>
        <path fill="#DC8282" fill-rule="nonzero" d="M17.662 124.13C25.666 129.928 29 139 29 139s-9.647-.332-17.662-6.13C3.322 127.072 0 118 0 118s9.656.332 17.662 6.13z"/>
        <path stroke="#535461" stroke-width="2" d="M0 118s10.016 5.572 13.228 10.175C16.44 132.778 29 139 29 139"/>
        <path fill="#DC8282" fill-rule="nonzero" d="M23.74 112.503C28.158 115.81 30 121 30 121s-5.324-.188-9.743-3.503C15.837 114.182 14 109 14 109s5.324.176 9.74 3.503z"/>
        <path stroke="#535461" stroke-width="2" d="M14 109s5.526 3.18 7.297 5.813C23.069 117.446 30 121 30 121"/>
        <path fill="#DC8282" fill-rule="nonzero" d="M35.357 120.262C30.109 125.784 29 133 29 133s7.397-1.737 12.643-7.26C46.889 120.219 48 113 48 113s-7.397 1.737-12.643 7.262z"/>
        <path stroke="#535461" stroke-width="2" d="M48 113s-6.834 5.658-8.572 9.558C37.691 126.458 29 133 29 133"/>
    </g>
</svg>
