<?xml version="1.0" encoding="UTF-8"?>
<svg version="1.1" width="283" height="200" viewBox="0 0 283 200" xmlns="http://www.w3.org/2000/svg" xmlns:xlink="http://www.w3.org/1999/xlink">
<defs>
<filter id="a" x="0%" y="0%" width="100%" height="100%">
<feColorMatrix in="SourceGraphic" values="0 0 0 0 1 0 0 0 0 1 0 0 0 0 1 0 0 0 1 0"/>
</filter>
<mask id="o">
<g filter="url(#a)">
<rect width="283" height="200" fill-opacity=".10196"/>
</g>
</mask>
<clipPath id="v">
<rect width="283" height="200"/>
</clipPath>
<g id="c" clip-path="url(#v)">
<path d="m257.27 58.512c0-28.348-22.977-51.613-52.262-54.043 1.6719-0.14062 3.3594-0.21484 5.0664-0.21484 31.66 0 57.328 24.293 57.328 54.258 0 29.965-25.668 54.254-57.328 54.254-1.7031 0-3.3906-0.074219-5.0586-0.21484 29.285-2.4297 52.254-25.695 52.254-54.039z"/>
</g>
<mask id="n">
<g filter="url(#a)">
<rect width="283" height="200" fill-opacity=".10196"/>
</g>
</mask>
<clipPath id="u">
<rect width="283" height="200"/>
</clipPath>
<g id="b" clip-path="url(#u)">
<path d="m32.418 127.66c0-28.348 22.973-51.613 52.258-54.043-1.668-0.13672-3.3594-0.21484-5.0664-0.21484-31.66 0-57.324 24.293-57.324 54.258s25.664 54.254 57.324 54.254c1.707 0 3.3906-0.074218 5.0586-0.21484-29.281-2.4297-52.25-25.695-52.25-54.039z"/>
</g>
<mask id="m">
<g filter="url(#a)">
<rect width="283" height="200" fill-opacity=".10196"/>
</g>
</mask>
<clipPath id="t">
<rect width="283" height="200"/>
</clipPath>
<g id="h" clip-path="url(#t)">
<path d="m207.24 55.375c-0.13281 0.67969-0.28125 1.3867-0.70312 1.9492-0.48828 0.64453-1.2812 1.0117-1.8047 1.6289-0.78906 0.92578-0.83203 2.2344-0.83594 3.4336-0.003906 1.1094 0.019531 2.2891 0.65625 3.2109 0.45312 0.56641 1.0195 1.0508 1.6602 1.4141 2.3906 1.5625 4.9766 3.1484 7.8594 3.1992 1.1953 0.023437 2.4766-0.27734 3.2617-1.1484 0.33984-0.41016 0.60938-0.87109 0.79297-1.3633 0.73438-1.7617 1.1836-3.6211 1.3242-5.5156 0.10547-0.89062 0.019531-1.793-0.25391-2.6484-0.34766-0.94531-1.0586-1.7227-1.5273-2.6211-0.55078-1.0625-0.75391-2.2695-0.57812-3.4492 0.023437-0.085938 0.015625-0.17188-0.023438-0.25-0.078125-0.085938-0.19141-0.12891-0.30859-0.12109l-5.7188-0.39844c-0.53125-0.027343-1.0625-0.085937-1.5859-0.17578-0.30859-0.0625-1.1211-0.48438-1.418-0.375-0.54297 0.21094-0.68359 2.6641-0.79688 3.2305z"/>
</g>
<mask id="l">
<g filter="url(#a)">
<rect width="283" height="200" fill-opacity=".10196"/>
</g>
</mask>
<clipPath id="s">
<rect width="283" height="200"/>
</clipPath>
<g id="g" clip-path="url(#s)">
<path d="m193.27 95.273c2.1602 0.66016 11.289 5.25 12.855 6.8516-0.20703 0.074219-7.3281-3.8242-7.5391-3.8867-1.957-0.52344-3.875-1.1836-5.7383-1.9766-0.37109-0.16797-2.4102-0.95312-2.3164-1.4102 0.10156-0.51953 2.3516 0.30469 2.7344 0.42188z"/>
</g>
<mask id="k">
<g filter="url(#a)">
<rect width="283" height="200" fill-opacity=".10196"/>
</g>
</mask>
<clipPath id="r">
<rect width="283" height="200"/>
</clipPath>
<g id="f" clip-path="url(#r)">
<path d="m229.74 94.629c-1.5742 1.1914-3.6094 2.2852-5.1719 3.5078-0.53125 0.41797-9.4062 5.4453-9.5312 6.1133 1.457 0.24609 10.727-6.2891 12.051-6.9414 1.3281-0.65234 2.5039-1.5703 3.668-2.4844 0.29688-0.23047 1.5547-0.93359 0.70312-1.1914-0.48047-0.14844-1.3633 0.75781-1.7188 0.99609z"/>
</g>
<mask id="j">
<g filter="url(#a)">
<rect width="283" height="200" fill-opacity=".2"/>
</g>
</mask>
<clipPath id="q">
<rect width="283" height="200"/>
</clipPath>
<g id="e" clip-path="url(#q)">
<path d="m51.254 158.87-6.7617 3.8984-7.7227-11.703 7.4531 9.6406z"/>
</g>
<mask id="i">
<g filter="url(#a)">
<rect width="283" height="200" fill-opacity=".10196"/>
</g>
</mask>
<clipPath id="p">
<rect width="283" height="200"/>
</clipPath>
<g id="d" clip-path="url(#p)">
<path d="m278.21 145.75c-7.0117 13.75-21.25 22.945-36.004 29.012-19.863 8.168-41.738 11.406-63.312 10.035-3.7812-0.23828-7.5508-0.62109-11.312-1.1445-13.051-1.8125-25.773-5.332-37.805-10.469-3.4766-1.4883-6.8789-3.1094-10.211-4.8711-5.5664-2.9336-10.898-6.25-15.953-9.9219-1.2734-0.92188-2.5273-1.8672-3.7656-2.8398-0.85547-0.67188-1.707-1.3594-2.5703-2.0273-1.8203-1.4062-3.6953-2.7422-5.7852-3.7461-0.62891-0.30078-1.2773-0.57422-1.9375-0.8125-6.6172-2.3945-14.25-1.4883-21.141 0.37891-5.2422 1.418-10.352 3.3633-15.586 4.75-2.3281 0.63672-4.7031 1.1172-7.1016 1.4375-5.3594 0.64062-10.797 0.1875-15.953-1.3359l-0.44141-0.12891c-0.73828-0.21875-1.4727-0.46094-2.1992-0.72266l-0.44141-0.16406c-0.70312-0.25781-1.3945-0.53516-2.0664-0.82812l-0.44141-0.19141c-0.70312-0.3125-1.3906-0.64062-2.0664-0.98828-0.24219-0.11719-0.48047-0.25-0.71875-0.37109-3.8359-2.0352-7.3203-4.6172-10.336-7.6523-0.085938-0.082032-0.16797-0.16797-0.26562-0.25-0.41797-0.42969-0.82812-0.87109-1.2266-1.3203-0.14844-0.16406-0.29687-0.33203-0.44141-0.5-0.47266-0.55078-0.92969-1.1094-1.3711-1.6836-0.0625-0.082032-0.12891-0.16797-0.19141-0.25-1.8047-2.3711-3.2969-4.9414-4.4492-7.6523-0.039063-0.082032-0.070313-0.16797-0.10156-0.25-0.35547-0.86328-0.67578-1.7383-0.96484-2.6289-0.11719-0.37109-0.23438-0.75-0.33203-1.125-0.035156-0.10938-0.066406-0.22266-0.09375-0.33203-1.4609-5.4531-1.625-11.121-1.625-16.758v-1.9688c0.042969-9.1172 0.1875-18.387 1.6055-27.375 0-0.066406 0.019531-0.125 0.027343-0.1875 0.47266-3.0273 1.1172-6.0273 1.9297-8.9883 0.85156-3.1055 1.9375-6.1484 3.25-9.1055 3.25-7.2773 7.9844-13.898 13.238-20.035 13.234-15.445 30.594-28.406 50.906-33.262 21.895-5.2266 46.223-0.21875 63.879 13.148 5.3867 4.0742 10.223 8.8984 16.27 12.023 5.2773 2.7188 11.453 3.8477 17.105 1.707 4.6719-1.7695 7.7148-2.6484 12.961-2.3789 10.859 0.58594 21.566 2.7148 31.762 6.3242 0.41406 0.14453 0.82422 0.29297 1.2344 0.44141 26.574 9.6641 49.422 28.875 61.297 53.555 0.31641 0.65234 0.62109 1.3086 0.91797 1.9727 7.0781 15.723 9.6406 34.152 1.8281 49.48z" fill="#dc8181"/>
</g>
</defs>
<path d="m183 112.14c-5.4883 3.1445-15.27 7.082-25.266 3.0352l-6.4609-2.6172 12.949-13.859c-21.41-22.535-21.371-56.918 0.082031-79.41 21.457-22.496 57.305-25.738 82.805-7.4883 25.5 18.246 32.297 52.008 15.703 77.984-16.598 25.973-51.148 35.652-79.812 22.355zm-24.809-53.195c-0.054688 13.684 5.875 26.77 16.363 36.098l3.5703 3.2031-8.1484 8.7188c4.2461-0.82031 7.9414-3.0117 9.8164-4.2852l2.5703-1.7461 2.7656 1.4492c7.6445 3.9961 16.223 6.0898 24.938 6.0898 28.602 0 51.875-22.219 51.875-49.527 0-27.309-23.273-49.527-51.875-49.527s-51.875 22.219-51.875 49.527z" fill="#3e3d55"/>
<path d="m153.76 58.512c0-29.965 25.438-54.258 56.82-54.258s56.824 24.293 56.824 54.258c0 29.961-25.441 54.254-56.824 54.254-9.5508 0.011719-18.949-2.2812-27.32-6.6758-3.9297 2.6719-13.512 7.9922-22.977 4.1602l11.395-12.199c-11.449-10.242-17.938-24.559-17.918-39.539z" fill="#dc8181"/>
<use mask="url(#o)" xlink:href="#c"/>
<path d="m79.695 187.23c-29.227 0.011719-54.469-19.512-60.523-46.812-6.0508-27.301 8.7422-54.918 35.465-66.215 26.727-11.297 58.082-3.1836 75.18 19.449s15.262 53.605-4.3984 74.254l12.914 13.82-6.4453 2.6094c-9.9688 4.0352-19.723 0.10938-25.195-3.0273-8.4141 3.8945-17.645 5.918-26.996 5.9219zm0-108.38c-28.527 0-51.734 22.16-51.734 49.398 0 27.238 23.207 49.398 51.734 49.398 8.6914 0 17.246-2.0898 24.871-6.0742l2.7578-1.4492 2.5664 1.7422c1.8672 1.2695 5.5547 3.457 9.7891 4.2773l-8.1289-8.6953 3.5625-3.1992c10.461-9.3008 16.375-22.352 16.316-36 0-27.238-23.207-49.398-51.734-49.398z" fill="#3e3d55"/>
<path d="m135.93 127.66c0-29.965-25.441-54.258-56.824-54.258-31.383 0-56.82 24.293-56.82 54.258s25.438 54.254 56.82 54.254c9.5508 0.011719 18.949-2.2812 27.32-6.6719 3.9297 2.668 13.512 7.9883 22.977 4.1562l-11.395-12.199c11.449-10.242 17.938-24.559 17.922-39.539z" fill="#dc8181"/>
<use mask="url(#n)" xlink:href="#b"/>
<path d="m222.97 41.449c-3.6289-6.0391-10.805-6.3203-10.805-6.3203s-6.9922-0.88281-11.48 8.3164c-4.1797 8.5742-9.9531 16.852-0.92969 18.859l1.6328-5 1.0078 5.3711c1.2852 0.089844 2.5742 0.11328 3.8594 0.066407 9.6641-0.30859 18.867 0.089843 18.57-3.3281-0.39062-4.543 1.6328-12.152-1.8555-17.965zm-23.16 53.188c-0.10938 0.66016-0.26562 1.3086-0.47266 1.9492-0.23047 0.62109-0.58594 1.1992-0.79688 1.8281-0.67188 2.0117 0.26172 4.25 1.7461 5.8008 1.2891 1.3398 2.9531 2.293 4.793 2.7422 1.3555 0.27734 2.7344 0.41797 4.1172 0.41406 3.8281 0.125 7.7539 0.23828 11.383-0.94531 1.1445-0.38281 2.25-0.86719 3.3047-1.4453 0.33203-0.15625 0.625-0.37891 0.85938-0.65234 0.24219-0.40625 0.34766-0.87109 0.30859-1.3359-0.007813-1.5625-0.33594-3.1172-0.25781-4.6758 0.042969-0.86719 0.21094-1.7305 0.125-2.5898-0.23047-2.0078-1.75-3.6523-3.7891-4.1172-1.0312-0.21484-2.0977-0.097656-3.1445 0-2.7188 0.25-5.4492 0.37109-8.1797 0.35156-2.793-0.015626-5.5664-0.42578-8.3398-0.46875-0.82422-0.011719-0.80469 0.23047-1.0664 0.99609-0.24219 0.70312-0.4375 1.4219-0.59375 2.1484z" fill="#2f2e40"/>
<path d="m207.24 55.375c-0.13281 0.67969-0.28125 1.3867-0.70312 1.9492-0.48828 0.64453-1.2812 1.0117-1.8047 1.6289-0.78906 0.92578-0.83203 2.2344-0.83594 3.4336-0.003906 1.1094 0.019531 2.2891 0.65625 3.2109 0.45312 0.56641 1.0195 1.0508 1.6602 1.4141 2.3906 1.5625 4.9766 3.1484 7.8594 3.1992 1.1953 0.023437 2.4766-0.27734 3.2617-1.1484 0.33984-0.41016 0.60938-0.87109 0.79297-1.3633 0.73438-1.7617 1.1836-3.6211 1.3242-5.5156 0.10547-0.89062 0.019531-1.793-0.25391-2.6484-0.34766-0.94531-1.0586-1.7227-1.5273-2.6211-0.55078-1.0625-0.75391-2.2695-0.57812-3.4492 0.023437-0.085938 0.015625-0.17188-0.023438-0.25-0.078125-0.085938-0.19141-0.12891-0.30859-0.12109l-5.7188-0.39844c-0.53125-0.027343-1.0625-0.085937-1.5859-0.17578-0.30859-0.0625-1.1211-0.48438-1.418-0.375-0.54297 0.21094-0.68359 2.6641-0.79688 3.2305z" fill="#9f6169"/>
<use mask="url(#m)" xlink:href="#h"/>
<path d="m220.61 48.402c0 4.4102-3.7422 7.9805-8.3555 7.9805s-8.3555-3.5703-8.3555-7.9805c0-4.4062 3.7422-7.9766 8.3555-7.9766s8.3555 3.5703 8.3555 7.9766z" fill="#9f6169"/>
<path d="m208.03 65.887c0.41406 0.44922 0.91016 0.82422 1.4688 1.1016 0.57812 0.22656 1.2031 0.33984 1.832 0.32812 1.5039 0.042969 3.1406-0.21875 4.1875-1.2383 1.3477-1.3125 1.3047-3.4297 2.3633-4.9609 0.085938-0.14063 0.20312-0.25781 0.34375-0.35156 0.17578-0.089844 0.37891-0.13672 0.57812-0.125 1.3359-0.011719 2.5 0.80469 3.5547 1.582 0.49219 0.31641 0.91797 0.72656 1.25 1.1953 0.20703 0.38281 0.34766 0.79297 0.42188 1.2148 0.51953 2.3984 0.6875 4.8477 0.85547 7.2891 0.09375 1.3477 0.1875 2.6953 0.17969 4.0469-0.023438 4.4492-1.1211 8.8242-2.2148 13.152-0.14062 0.55859-0.33203 1.1836-0.875 1.4492-0.23828 0.10156-0.49609 0.16016-0.76172 0.17578-3.1289 0.34766-6.2656 0.69141-9.4219 0.73828-1.2266 0.019531-2.457-0.011719-3.6875-0.085937-0.21094 0-0.42187-0.035157-0.62109-0.10156-0.26953-0.12109-0.50391-0.30859-0.67578-0.53906-1.707-2.0234-1.8086-4.8164-1.7969-7.3984 0.027344-6.3086 0.26563-12.613 0.71875-18.914 0.039063-0.51953 0.046876-1.1523-0.35156-1.5586 0.77344 1.0781 1.6641 2.0859 2.6523 3z" fill="#fff"/>
<path d="m207.15 56.035c-0.29297 0.48828-2.4375 1.7031-2.8516 2.1094-2.3086 2.2656-6.5312 2.1797-8.6445 4.6094-0.74219 0.85547-1.1289 1.9258-1.4141 2.9922-0.40234 1.5117-0.61719 3.1562 0.058593 4.5781 0.64844 1.3711 2.0117 2.3164 2.9375 3.5391 1.0156 1.3438 1.4727 2.9727 1.9141 4.5625 0.32031 1.1758 0.64844 2.3789 0.52344 3.5859-0.14453 1.3711-0.85938 2.6289-1.2812 3.9492-0.42188 1.3242-0.49219 2.8984 0.48047 3.9375 0.71875 0.76172 1.8398 1.0625 2.9141 1.2344 1.375 0.19141 2.7617 0.30469 4.1523 0.33594 1.2266 0.050781 2.5781 0.0625 3.5234-0.66797 0.74219-0.58203 1.0664-1.5156 1.1094-2.418 0.042969-0.90234-0.16016-1.793-0.28906-2.6875-0.12891-0.92578-0.17969-1.8594-0.22266-2.793-0.1875-4.1914-0.21094-8.3828-0.078125-12.578 0.070313-0.875 0.027344-1.75-0.13281-2.6094-0.26562-1.125-0.91797-2.125-1.4609-3.1562-1.0859-1.9414-1.5781-4.125-1.4258-6.3086 0.16797-2.2461 1.2188-3.957 0.1875-2.2148zm10.77-0.089844c0.42578 0.42969 1.8867 0.57031 2.4297 0.84766 0.51563 0.23047 1.0508 0.41016 1.6016 0.53906 1.9922 0.55859 3.8867 1.4023 5.6211 2.5078 0.35938 0.20703 0.67969 0.47266 0.94141 0.78906 0.27344 0.4375 0.45312 0.92188 0.51953 1.4297 0.26562 1.2891 0.53516 2.5938 0.47656 3.9023-0.066407 1.3945-0.49609 2.7461-0.92578 4.0781l-1.5977 4.9766c-1.1953 3.7109-2.3984 7.4609-2.7344 11.34-0.18359 2.1484-0.10156 4.3125 0.24609 6.4414 0.066406 0.20703 0.039062 0.4375-0.078125 0.625-0.10547 0.097656-0.24609 0.16016-0.39453 0.17578-0.76953 0.11328-1.5195-0.26953-2.2188-0.60547-2.1367-1.0352-4.418-1.7617-6.7734-2.1562 0.92188-1.293 1.6289-2.7148 2.1055-4.2188 0.26953-0.95703 0.48047-1.9258 0.63281-2.9023l0.74609-4.1875c0.30469-1.5312 0.51562-3.0781 0.63672-4.6289 0.058594-0.58203 0.023438-1.1719-0.10156-1.7461-0.17188-0.54297-0.39844-1.0703-0.67969-1.5703-1.2266-2.4844-1.8008-5.3164-1.3203-8.0273 0.21094-1.1875 0.62109-2.3789 0.44922-3.5703-0.16406-1.1484 0.007813-2.0391-0.29297-3.1758-1.2422-4.6641-0.097657-1.6719 0.71094-0.86328z" fill="#fff"/>
<path d="m195.75 68.129c-0.53125 1.1016-1.418 2.043-1.7188 3.2266-0.11719 0.55469-0.16797 1.1211-0.14844 1.6875-0.054687 0.85156 0.03125 1.7109 0.25 2.5352 0.16797 0.52344 0.44141 1.0039 0.63672 1.5195 0.27734 0.71484 0.39844 1.4805 0.36328 2.2461-0.054687 1.0625-0.41406 2.0938-0.44141 3.1562-0.046875 1.6719 0.72656 3.2422 1.4805 4.7344 0.38281-0.95312 1.168-1.6836 2.1406-2.0039 0.97656-0.32031 2.0391-0.19141 2.9102 0.34766 0.17578-0.21484 0.25781-0.48438 0.23047-0.75391 0.054687-1.9414 0.10938-3.8789 0.16016-5.8203 0.082031-3 0.16016-6.0352-0.53125-8.957-0.30859-1.3164-0.79297-2.6328-1.6797-3.6523-0.46875-0.53906-2.0547-1.957-2.8203-1.3555-0.34766 0.27344-0.26562 1.0117-0.32031 1.3828-0.082031 0.59375-0.25391 1.168-0.51172 1.707zm34.59-3.5352c0.22656 0.8125 0.32422 1.6562 0.28516 2.5 0.011719 1.7148-0.011719 3.4336-0.070312 5.1484 0.011718 0.88281-0.10547 1.7617-0.34375 2.6094-0.17969 0.55469-0.46094 1.0703-0.64453 1.6211-0.5625 1.6523-0.25391 3.4414-0.20703 5.1797 0.035156 0.5625-0.015625 1.1289-0.14844 1.6758-0.29297 1.0781-1.0898 1.9492-1.6406 2.9258-0.52734 0.92578-0.84766 1.9648-1.4727 2.8281-0.62891 0.86719-1.7188 1.5508-2.7734 1.2852-0.80078-0.20313-1.3672-0.88672-1.7617-1.5938-0.85547-1.5508-1.1484-3.3398-0.83203-5.0703 0.39453-2.1094 1.6719-3.9805 2.1289-6.0781 0.63281-2.8789-0.32812-5.8477-0.29688-8.793-0.015625-0.46094 0.050781-0.92188 0.19141-1.3633 0.23828-0.67188 0.75781-1.207 1.2344-1.7461 0.59766-0.67578 1.1562-1.3828 1.6641-2.1211 0.34375-0.5 0.80859-1.7734 1.418-1.8828 1.3555-0.23438 2.9336 1.8555 3.2695 2.875z" fill="#fff"/>
<path d="m188.14 93.848c-0.74219-0.17578-1.5117-0.25-2.2773-0.22656-1.6289 0.085937-3.1445 0.81641-4.1523 2.0156-1.0117 1.1953-1.4219 2.7383-1.125 4.2383 0.18359 0.80078 0.48828 1.5742 0.90234 2.3008 0.60547 1.1445 1.3281 2.2852 2.4453 3.0195 0.67578 0.40234 1.3984 0.72266 2.1602 0.95703l5.8906 2.0703c0.86328 0.30469 1.7305 0.60938 2.6055 0.89062 4.3945 1.418 8.9805 2.2695 13.621 2.5273 1.4141 0.125 2.8398 0.058594 4.2305-0.19922 0.33594-0.039062 0.64453-0.19531 0.86719-0.43359 0.10938-0.18359 0.17578-0.38672 0.19141-0.59766l0.36328-2.3672c0.082031-0.33203 0.070312-0.67578-0.03125-1-0.16406-0.39844-0.58203-0.64844-0.98047-0.85938-3.8711-2.0742-8.3906-3.2227-11.648-6.0703-0.76953-0.66797-1.4102-1.7344-2.3438-2.1875-1.0547-0.51562-2.3008-0.8125-3.3945-1.2891-2.3867-1.0391-4.7344-2.2344-7.3242-2.7891z" fill="#2f2e40"/>
<use mask="url(#l)" xlink:href="#g"/>
<path d="m220.23 113.82c0.10156 0.011719 0.20313-0.023438 0.28516-0.09375 0.074219-0.10547 0.10547-0.24219 0.089843-0.375l-0.007812-3.4102c-0.86328-0.46875-1.832-0.61719-2.7773-0.76172l-4.4258-0.67188c0.10156 0.015625-0.69141 2.1641-0.57031 2.4492 0.21484 0.50781 1.8516 0.95312 2.3164 1.1914 1.6055 0.83203 3.2773 1.7461 5.0898 1.6719z" fill="#9f6169"/>
<path d="m203.95 108.68c-1.043 0.14062-2.2031 0.26562-2.8789 0.95703-0.85156 0.87891-0.48828 2.1875-0.082031 3.2734 0.050781 0.28516 0.23438 0.53906 0.50781 0.70703 0.27344 0.16797 0.61328 0.23047 0.94141 0.17969 0.94922 0.050781 1.9609 0.09375 2.7891-0.30469 0.375-0.21484 0.73828-0.44141 1.082-0.6875 0.61328-0.34766 1.2852-0.60938 1.9922-0.77734 1.3047-0.35156 2.6406-0.58594 4-0.70703 0.53516-0.019531 1.0664-0.097656 1.5742-0.23437 0.51953-0.14453 0.92969-0.48438 1.1094-0.92188 0.19141-0.57812-0.20312-1.1719-0.58203-1.6836-0.4375-0.66797-1.0039-1.2656-1.6758-1.7695-1.0273-0.67969-1.5352-0.16016-2.5703 0.27734-1.957 0.82812-4.0508 1.3984-6.207 1.6914z" fill="#9f6169"/>
<path d="m202.04 110.37-6.6367-1.4922c-0.79688-0.21094-1.6289-0.33203-2.4688-0.36328-0.85156-0.027344-1.6797 0.23047-2.2695 0.69922-0.51562 0.45703-0.66016 1.0859-0.78906 1.6797l-0.27344 1.2734c-0.18359 0.64453-0.23437 1.3047-0.15625 1.957 0.089844 0.66406 0.57813 1.2578 1.3203 1.6133 0.91797 0.37891 2.043 0.19531 3.0664 0.035156 2.0742-0.32422 4.1797-0.49219 6.293-0.51172 0.79297-0.007812 1.625 0 2.3281-0.28516 0.82812-0.37109 1.3594-1.0312 1.4219-1.7617 0.12891-1.0859-0.34766-2.5117-1.8359-2.8438zm20.141-1.8945c0.82031-0.11719 1.5469-0.49219 2.3359-0.71094 1.1055-0.3125 2.3086-0.3125 3.4805-0.30859 0.43359-0.03125 0.86719 0.039063 1.25 0.19922 0.51953 0.27734 0.64844 0.82812 0.73828 1.3203l0.53125 2.9727c0.14062 0.55469 0.15625 1.125 0.042969 1.6836-0.15625 0.55078-0.625 1.082-1.3086 1.2227-0.82812 0.17578-1.6406-0.25-2.4219-0.52734-1.957-0.69531-4.2305-0.51953-6.2695-1.0391-0.39453-0.0625-0.73828-0.25781-0.94141-0.53906-0.066407-0.16406-0.09375-0.33984-0.070313-0.51172 0.035156-0.95703-0.21875-2.2617 0.14062-3.1719 0.32422-0.82031 1.5742-0.58984 2.4922-0.58984z" fill="#2f2e40"/>
<path d="m236.25 91.793c1.2305-0.29297 2.5039-0.375 3.7656-0.24219 1.0078 0.10547 2.0469 0.37109 2.7812 1.0312 0.89453 0.80469 1.1797 2.0508 1.207 3.2227 0.039063 2.3281-0.77734 4.6016-2.3047 6.4258-0.375 0.46094-0.81641 0.86719-1.3203 1.2031-0.53906 0.32031-1.1133 0.58203-1.7148 0.78516l-13.305 4.9805c-3.5 1.3086-7.0117 2.625-10.664 3.4883-0.20312 0.09375-0.43359 0.10547-0.64453 0.03125-0.21094-0.070312-0.38281-0.22266-0.47266-0.41406-1.168-1.582-2.1445-3.2812-2.918-5.0664-0.074218-0.085937-0.10156-0.19922-0.066406-0.30859 0.03125-0.10547 0.11328-0.19141 0.22656-0.23047l9.4102-5.1289c0.69141-0.34375 1.3359-0.76172 1.918-1.2539 0.40625-0.375 0.73828-0.8125 0.98047-1.3008 0.19531-0.38672 0.21484-1.2969 0.46484-1.582 0.24219-0.28125 1.0781-0.30469 1.4609-0.41406 0.54687-0.15625 1.0781-0.34766 1.5938-0.57031 2.1055-0.89453 3.9805-2.1953 6-3.2422 1.1328-0.61328 2.3438-1.0859 3.6016-1.4141z" fill="#2f2e40"/>
<use mask="url(#k)" xlink:href="#f"/>
<path d="m219.52 57.445h-14.383c-1.2148 0-2.2031 0.92578-2.2031 2.0703v0.75391h-0.15234v1.6953h0.15234v1.1836h-0.15234v1.0156h0.15234v12.492c0 1.1406 0.98828 2.0664 2.2031 2.0664h14.383c1.2148 0 2.1992-0.92578 2.1992-2.0664v-17.141c0-1.1445-0.98438-2.0703-2.1992-2.0703z" fill="#cfcde0"/>
<path d="m221.39 41.695-6.9766-3.3984-9.6367 1.3906-1.9922 8.1836 4.9609-0.17578 1.3867-3.0078v2.957l2.2891-0.082031 1.3281-4.7852 0.83203 5.0938 8.1406-0.15234z" fill="#2f2e40"/>
<path d="m197.55 88.938c0.32812 0.52344 0.80078 0.95703 1.3672 1.2617 0.75 0.32031 1.6211 0.30078 2.3516-0.058594 0.72266-0.35938 1.3125-0.90625 1.6992-1.5781 0.79688-1.3086 0.96094-2.875 0.86328-4.3711-0.10156-1.5-0.44531-2.9766-0.59766-4.4727-0.11328-1.0859-0.12109-2.1797-0.12891-3.2695-0.027344-0.23047 0.023437-0.46094 0.14844-0.66406 0.21094-0.19531 0.48828-0.32422 0.78516-0.36328 1.6094-0.44141 2.6758-1.8438 3.4414-3.2305 0.51172-0.92578 0.95312-1.9375 0.85547-2.9727-0.097657-1.0391-0.89844-2.082-2.0156-2.1875-0.91797-0.085938-1.7656 0.45312-2.4258 1.0508-1.6758 1.5156-2.75 3.5117-3.0547 5.6641-0.14453 1.0547-0.10156 2.1367-0.41016 3.1602-0.66016 2.1836-2.7227 3.5234-3.75 5.4883-1.1328 2.168-0.50781 4.625 0.87109 6.543zm29.457-6.3789c-0.42578 1.0625-1.2344 1.8945-2.2422 2.3086-0.62109 0.26562-1.3047 0.3125-1.9492 0.12891-0.64844-0.19531-1.1758-0.69922-1.4297-1.3711-0.097657-0.33203-0.15234-0.67969-0.16016-1.0273-0.09375-1.5312-0.054687-3.1055 0.46094-4.5352 0.20312-0.55078 0.47266-1.0742 0.62891-1.6406 0.15625-0.65234 0.23438-1.3242 0.23828-2l0.16797-4.1758c0.027344-0.30078 0.007813-0.60938-0.058594-0.90234-0.16797-0.60547-0.69531-0.99609-1.1797-1.3594-1.1641-0.87109-2.3203-1.8828-2.8828-3.2812-0.19531-0.42188-0.26562-0.89453-0.19922-1.3594 0.16016-0.82812 0.9375-1.3672 1.7109-1.5469 1.0195-0.23828 2.0859-0.019531 2.9492 0.60156 0.86719 0.625 1.457 1.6016 1.6367 2.7031 0.078125 0.47266 0.074219 0.95313 0.12109 1.4297 0.09375 1.0078 0.39063 1.9805 0.57813 2.9766 0.46094 2.4492 0.22266 4.9766 0.67969 7.4258 0.37891 2.0469 1.8164 3.3828 0.92969 5.625z" fill="#9f6169"/>
<path d="m212.81 64.895c0 0.58594-0.5 1.0625-1.1172 1.0625-0.61328 0-1.1133-0.47656-1.1133-1.0625 0-0.58984 0.5-1.0664 1.1133-1.0664 0.61719 0 1.1172 0.47656 1.1172 1.0664z" fill="#dc8181"/>
<path d="m22.285 120.75c0 2.6406-2.2461 4.7852-5.0156 4.7852s-5.0117-2.1445-5.0117-4.7852c0-2.6445 2.2422-4.7891 5.0117-4.7891s5.0156 2.1445 5.0156 4.7891z" fill="#2f2e40"/>
<path d="m36.723 135.43-2.5781-2.4531-5.1758 1.5742 0.49609 5.8711 10.645-0.48438-3.2695-4.3516z" fill="#fbbebe"/>
<path d="m38.996 128.19c0 4.4062-3.7422 7.9805-8.3555 7.9805-4.6172 0-8.3555-3.5742-8.3555-7.9805s3.7383-7.9805 8.3555-7.9805c4.6133 0 8.3555 3.5742 8.3555 7.9805z" fill="#fbbebe"/>
<path d="m83.996 146.81s10.875 16.961 13.465 19.508c1.2305 1.2539 2.543 2.4414 3.9297 3.5547 0 0-1.2188 3.6602-3.1562 3.5312-1.1055-0.0625-2.1875-0.30469-3.1992-0.71484 0 0-0.86328-2.0352-2.3711-2.9297-1.5117-0.89062-13.84-11.898-13.555-15.414 0.29297-3.5156 4.8867-7.5352 4.8867-7.5352z" fill="#2f2e40"/>
<path d="m46.797 171.55s11.418 8.1875 26.934 0.49609l1.3398-0.91016s-2.2578 4.6914-2.4688 5.9609c-0.24219 1.4727-6.1172 10.109-7.0742 10.523-0.96094 0.41406-1.1719 0.79297-1.1719 0.79297l4.0664 4.1406 1.5039-1.0234s5.8672-7.6797 7.582-9.082c1.7188-1.4062 9.8906-15.887 9.8906-15.887s3.1289-5.457-4.6719-5.8672c-7.8008-0.41016-11.391 1.5508-11.391 1.5508l-13.844 2.0352zm53.688-1.3398 5.625 3.2344s7.1758 1.8672 2.7539 3.1094c-4.418 1.2461-16.066 1.6914-16.332-0.019532-0.26172-1.7148 0.46094-4.4141 1.043-4.2656 0.58203 0.14453 4.6133 1.0156 6.9102-2.0586z" fill="#2f2e40"/>
<path d="m70.109 190 1.0977 5.7422s3.1133 5.6875-0.625 3.9219-11.441-8.4688-10.305-9.8711c1.1367-1.4062 3.6484-2.9297 3.9023-2.4727 0.25781 0.45703 2.1445 3.5234 5.9297 2.6797z" fill="#2f2e40"/>
<path d="m59.051 165.52s-7.5312 8.5742-12.105 6.4922c-4.5742-2.082-23.285-26.211-21.148-30.668 2.1367-4.457 2.8516-3.5117 2.8516-3.5117l9.6602 0.875-2.7773-4.3477s1.2969-0.92969 2.5352 0.37891c1.2344 1.3047 6.1992 4.5703 7.9297 9.1797 1.7305 4.6094 6.8086 4.3828 6.8086 4.3828z" fill="#fff"/>
<path d="m89.133 147.86-12.93 13.844-11.582-20.625 11.012-13.418z" fill="#3e3d55"/>
<path d="m88.02 147.91-11.691 11.664-10.594-17.973 9.7148-11.812z" fill="#fff"/>
<path d="m76.234 160.64 0.64453 0.5-0.41406 0.75781-18.355 5.125-0.17188-0.58984 0.83594-0.80859z" fill="#b2b2b2"/>
<path d="m76.879 160.25-18.691 5.707-11.391-21.027 18.359-4.5039z" fill="#cfcde0"/>
<path d="m73.535 158.98-0.73438 0.59375-8.1797-15.523 0.84375-0.43359z" fill="#3e3d55"/>
<path d="m73.535 158.37-7.8281 2.2656-8.8828-15.289 7.7422-1.7305z" fill="#3e3d55"/>
<path d="m50.059 148.4 1.6836-0.38281s9.3984-0.85156 9.5352 1.5195c0.13672 2.3711-10.797 1.2695-10.797 1.2695l-1.457-1.5898zm8.6602 13.301 2.1211-0.89844s6.4023-2.957 4.5664-4.8867c-1.8359-1.9297-7.5 1.4219-7.5 1.4219l-1.082 1.0586z" fill="#fbbebe"/>
<path d="m56.055 157.02s3.7148 3.5039 2.8711 4.3281c-0.84766 0.82422-14.707 11.652-18.145 8.1875s-20.18-20.859-13.664-22.352c6.5156-1.4922 8.2344 1.9961 8.2344 1.9961l8.6016 13.926zm-9.9141-11.27 6.2266 2.0391-0.10156 4.3438-6.5859-0.6875z" fill="#fff"/>
<use mask="url(#j)" xlink:href="#e"/>
<path d="m36.77 125.53c0 5.2891-4.4922 9.5742-10.031 9.5742-5.5352 0-10.027-4.2852-10.027-9.5742s4.4922-9.5742 10.027-9.5742c5.5391 0 10.031 4.2852 10.031 9.5742z" fill="#2f2e40"/>
<path d="m82.617 148.94-6.8516-10.18 2.9023-3.6523 7.125 10.473z" fill="#dc8181"/>
<path d="m81.973 153.19-10.664-15.328 0.52344-0.62891 10.617 15.363zm-1.1133 2.1289-10.668-15.328 0.52734-0.62891 10.617 15.363zm-1.1133 0-10.668-15.328 0.52734-0.62891 10.613 15.363z" fill="#e5e5e5"/>
<path d="m32.312 118.09h2.6797c2.8281 0 5.1172 2.3828 5.1172 5.3164h-7.7969z" fill="#2f2e40"/>
<path d="m75.535 114.93-0.55859-0.039063c-0.019531 0.26953-0.035156 0.54297-0.054687 0.8125l-2.5-0.078125 2.625 4.582 2.9453-4.4102-2.5117-0.078125c0.019531-0.26172 0.035156-0.52734 0.054687-0.78906zm14.711-39.645 0.39453 0.24219c0.59375-0.62891 1.2109-1.2578 1.8359-1.8672l-0.37891-0.26172c-0.63281 0.61719-1.2539 1.25-1.8516 1.8867zm4.457-4.3008 0.34375 0.28906c0.60938-0.62109 1.2461-1.2344 1.8867-1.8281l-0.32812-0.30078c-0.64453 0.59766-1.2852 1.2188-1.9023 1.8398zm4.457-4.3008 0.29688 0.33203c0.62891-0.60547 1.2812-1.2031 1.9336-1.7773l-0.28125-0.34766c-0.65625 0.57812-1.3125 1.1797-1.9492 1.793zm-13.367 15.02 0.45703 0.20703c0.56641-0.64062 1.1602-1.2812 1.7695-1.9062l-0.44141-0.21875c-0.61328 0.625-1.2148 1.2734-1.7852 1.918zm18.938-19.332 0.25391 0.39062c0.64453-0.58984 1.3125-1.168 1.9766-1.7227l-0.23828-0.40625c-0.66797 0.55859-1.3398 1.1445-1.9922 1.7383zm-22.281 24.688 0.53125 0.17188c0.53906-0.65234 1.1094-1.3086 1.6953-1.9414l-0.51953-0.1875c-0.58984 0.64062-1.1641 1.3008-1.707 1.957zm-4.457 17.281-0.92578-0.089844c-0.47266 0.67969-0.91016 1.3711-1.3008 2.0586l0.93359 0.070312c0.39062-0.67969 0.82422-1.3672 1.293-2.0391zm32.312-45.227 0.21094 0.45703c0.66016-0.57031 1.3398-1.1289 2.0156-1.6602l-0.19922-0.46875c-0.68359 0.53516-1.3633 1.0977-2.0273 1.6719zm-33.426 50.516-0.60156-0.058593c-0.19922 0.6875-0.37109 1.3906-0.51172 2.0859l0.60547 0.042969c0.14062-0.69141 0.3125-1.3867 0.50781-2.0703zm3.3398-17.215 0.62891 0.13672c0.50391-0.66406 1.043-1.3281 1.6016-1.9766l-0.61719-0.15234c-0.5625 0.65234-1.1055 1.3242-1.6133 1.9922zm-3.3398 6.4141 0.75391 0.10547c0.45703-0.67188 0.95313-1.3477 1.4727-2.0117l-0.74609-0.11719c-0.52344 0.66406-1.0234 1.3477-1.4805 2.0234zm72.434-50.961c0.73047-0.066406 1.4766-0.09375 2.2109-0.074219l0.003906-0.98438c-0.74219-0.015625-1.4922 0.011719-2.2266 0.078125zm-33.438 6.9102 0.17578 0.53906c0.67578-0.55078 1.3633-1.0781 2.0508-1.5781l-0.16016-0.55078c-0.69141 0.50391-1.3906 1.0391-2.0664 1.5898zm46.793-6.3672c0.72266 0.14844 1.4492 0.32422 2.1641 0.52344l0.066407-0.53906c-0.71875-0.19531-1.4531-0.375-2.1797-0.52734zm7.8008 1.3672c0.71094 0.38672 1.4258 0.82031 2.1289 1.2812l0.097656-0.83594c-0.70703-0.46484-1.4297-0.89844-2.1406-1.2891zm6.6836 0.90625c0.69922 0.44922 1.4062 0.93359 2.0977 1.4414l0.13281-0.67969c-0.69531-0.51172-1.4062-1-2.1133-1.4492zm-21.168-2.0781c0.73047 0.078125 1.4688 0.1875 2.1914 0.32812l0.035157-0.73828c-0.73047-0.14062-1.4727-0.25-2.207-0.32812zm-12.258-0.33594 0.046876 0.66406c0.72266-0.16016 1.457-0.29688 2.1836-0.39844l-0.03125-0.66797c-0.73047 0.10547-1.4727 0.23828-2.1992 0.40234zm-14.484 2.0078 0.11328 0.78125c0.69531-0.47656 1.4102-0.92578 2.1172-1.332l-0.09375-0.79297c-0.71484 0.41016-1.4297 0.86328-2.1367 1.3438zm-5.5703 2.2695 0.14453 0.64062c0.6875-0.51953 1.3906-1.0156 2.0859-1.4727l-0.12891-0.65625c-0.70313 0.46484-1.4102 0.96484-2.1016 1.4883zm12.258-4.1094 0.078124 0.49609c0.70703-0.21094 1.4336-0.39844 2.1484-0.56641l-0.058594-0.5c-0.72266 0.16797-1.4531 0.35938-2.168 0.57031zm50.137 6.5391-3.1289-3.918-1.1016 1.9219c-0.26563-0.10156-0.53125-0.20703-0.79688-0.30469l-0.22266 0.4375c0.26172 0.09375 0.51562 0.19531 0.77344 0.29297l-1.0938 1.9102z" fill="#3e3d55"/>
<use mask="url(#i)" xlink:href="#d"/>
</svg>
