<?xml version="1.0" encoding="UTF-8"?>
<svg version="1.1" width="283" height="200" viewBox="0 0 283 200" xmlns="http://www.w3.org/2000/svg" xmlns:xlink="http://www.w3.org/1999/xlink">
<defs>
<filter id="a" x="0%" y="0%" width="100%" height="100%">
<feColorMatrix in="SourceGraphic" values="0 0 0 0 1 0 0 0 0 1 0 0 0 0 1 0 0 0 1 0"/>
</filter>
<mask id="ak">
<g filter="url(#a)">
<rect width="283" height="200" fill-opacity=".10196"/>
</g>
</mask>
<clipPath id="bd">
<rect width="283" height="200"/>
</clipPath>
<g id="c" clip-path="url(#bd)">
<path d="m130.62 152.37c-9.8359 0.046874-19.32 2.3789-28.824 4.1875-10.57 2.0078-21.273 3.3828-32.035 4.125-11.469 0.79297-23.195 0.85937-34.332-1.2461-11.133-2.1055-21.695-6.5586-28.105-13.371-10.883-11.531-7.918-26.965-2.1953-40.246 6.7891-15.758 17.031-30.957 32.23-43.383 10.809-8.832 23.883-16.086 36.867-23.281 7.3359-4.0625 14.73-8.1562 23.062-11.086 7.7539-2.7148 16.145-4.3594 24.48-5.9844 8.9102-1.7344 17.82-3.4727 26.922-4.5547 29.043-3.4492 58.754-0.10938 87.754 3.5195 10.219 1.2734 20.859 2.7305 28.988 7.3086 6.3281 3.5703 10.523 8.7344 13.512 14.078 3.9141 6.9883 5.9297 15.078 1.6719 21.977-6.293 10.172-24.02 14.68-30.977 24.633-8.9102 12.758 3.3516 28.527-2.375 42.176-2.3789 5.6836-7.6992 10.484-13.258 14.895-13.246 10.543-30.25 19.609-51.113 15.824-17.66-3.2031-33.328-9.6641-52.273-9.5703z" fill="#dc8181"/>
</g>
<mask id="aj">
<g filter="url(#a)">
<rect width="283" height="200" fill-opacity=".039216"/>
</g>
</mask>
<clipPath id="at">
<rect width="283" height="200"/>
</clipPath>
<g id="b" clip-path="url(#at)">
<path d="m128.39 2.0117-1.2617 0.70703v172.35c0.42188 0.26953 0.83984 0.54297 1.2617 0.80859 73.91-46.711 73.91-132.35 73.91-132.35z" fill="#dc8181"/>
</g>
<mask id="aa">
<g filter="url(#a)">
<rect width="283" height="200" fill-opacity=".70196"/>
</g>
</mask>
<linearGradient id="al" x2="1" y1=".5" y2=".5" gradientTransform="matrix(44.898 0 0 33.738 104.17 75.566)" gradientUnits="userSpaceOnUse">
<stop stop-color="#7f7f7f" stop-opacity=".25098" offset="0"/>
<stop stop-color="#7f7f7f" stop-opacity=".12157" offset=".53514"/>
<stop stop-color="#7f7f7f" stop-opacity=".10196" offset="1"/>
</linearGradient>
<clipPath id="as">
<rect width="283" height="200"/>
</clipPath>
<g id="s" clip-path="url(#as)">
<path d="m110.1 86.785 14.227 11.797 17.633-23.016 7.1133 5.3633-24.746 28.375-20.152-20.375z" fill="url(#al)"/>
</g>
<mask id="z">
<g filter="url(#a)">
<rect width="283" height="200" fill-opacity=".50196"/>
</g>
</mask>
<clipPath id="ar">
<rect width="283" height="200"/>
</clipPath>
<g id="r" clip-path="url(#ar)">
<path d="m55 12.59c-0.42188-0.16797-0.64062-0.60156-0.50781-1 0.011718-0.03125 0.019531-0.0625 0.023437-0.09375 0.011719-0.18359-0.10938-0.35156-0.30078-0.41406-0.1875-0.066406-0.39844-0.007812-0.51953 0.13672-0.023437 0.027344-0.039062 0.054688-0.050781 0.082031-0.1875 0.38672-0.66016 0.58594-1.1016 0.46484-0.035157-0.011719-0.066407-0.019531-0.10156-0.019531-0.20312-0.011719-0.38672 0.097656-0.45703 0.26953s-0.007813 0.36719 0.15234 0.47656c0.03125 0.015624 0.058593 0.035156 0.09375 0.046874 0.42188 0.16797 0.64062 0.59766 0.50781 1-0.011719 0.027344-0.019531 0.058594-0.023437 0.089844-0.011719 0.18359 0.10938 0.35156 0.30078 0.41406 0.1875 0.066406 0.39844 0.007812 0.51953-0.13672 0.023438-0.027344 0.039063-0.054688 0.050782-0.082031 0.1875-0.38672 0.66016-0.58594 1.1016-0.46094 0.03125 0.007813 0.066406 0.015625 0.10156 0.015625 0.20313 0.011719 0.38672-0.097656 0.45703-0.26953 0.070312-0.17188 0.007812-0.36328-0.15234-0.47656-0.03125-0.015624-0.058594-0.03125-0.09375-0.042968zm-39.797 80.398c-0.42188-0.16797-0.64062-0.59766-0.50781-1 0.011719-0.027343 0.019532-0.058593 0.023438-0.089843 0.011719-0.18359-0.10938-0.35156-0.30078-0.41406-0.1875-0.066406-0.39844-0.007813-0.51953 0.13672-0.023438 0.027344-0.039063 0.054687-0.050782 0.082031-0.1875 0.38672-0.66016 0.58594-1.1016 0.46094-0.035156-0.007812-0.066406-0.015624-0.10156-0.015624-0.20312-0.011719-0.38672 0.097656-0.45703 0.26953s-0.007812 0.36328 0.15234 0.47656c0.03125 0.015625 0.058594 0.03125 0.09375 0.046875 0.42188 0.16797 0.64062 0.59766 0.50781 1-0.011718 0.027344-0.019531 0.058594-0.023437 0.089844-0.011719 0.18359 0.10938 0.35156 0.30078 0.41406 0.1875 0.066407 0.39844 0.007813 0.51953-0.13672 0.023438-0.027344 0.039063-0.054688 0.050781-0.082032 0.1875-0.38672 0.66016-0.58594 1.1016-0.46094 0.03125 0.007813 0.066406 0.015625 0.10156 0.015625 0.20312 0.011719 0.38672-0.097656 0.45703-0.26953 0.070312-0.17188 0.007812-0.36328-0.15234-0.47656-0.03125-0.015625-0.058594-0.03125-0.09375-0.046875z" fill="#4c89ef"/>
</g>
<mask id="y">
<g filter="url(#a)">
<rect width="283" height="200" fill-opacity=".50196"/>
</g>
</mask>
<clipPath id="aq">
<rect width="283" height="200"/>
</clipPath>
<g id="q" clip-path="url(#aq)">
<path d="m217.78 64.32c0 0.55469-0.49609 1.0078-1.1055 1.0078s-1.1055-0.45312-1.1055-1.0078c0-0.55469 0.49609-1.0039 1.1055-1.0039s1.1055 0.44922 1.1055 1.0039z" fill="#f45f44"/>
</g>
<mask id="x">
<g filter="url(#a)">
<rect width="283" height="200" fill-opacity=".50196"/>
</g>
</mask>
<clipPath id="ap">
<rect width="283" height="200"/>
</clipPath>
<g id="p" clip-path="url(#ap)">
<path d="m44.219 170.86c0 0.55469-0.49609 1.0039-1.1055 1.0039s-1.1055-0.44922-1.1055-1.0039c0-0.55469 0.49609-1.0078 1.1055-1.0078s1.1055 0.45312 1.1055 1.0078z" fill="#f45f44"/>
</g>
<mask id="w">
<g filter="url(#a)">
<rect width="283" height="200" fill-opacity=".50196"/>
</g>
</mask>
<clipPath id="ao">
<rect width="283" height="200"/>
</clipPath>
<g id="o" clip-path="url(#ao)">
<path d="m245.41 121.61c0 0.55469-0.49609 1.0039-1.1055 1.0039s-1.1055-0.44922-1.1055-1.0039 0.49609-1.0078 1.1055-1.0078 1.1055 0.45313 1.1055 1.0078z" fill="#f45f44"/>
</g>
<mask id="v">
<g filter="url(#a)">
<rect width="283" height="200" fill-opacity=".50196"/>
</g>
</mask>
<clipPath id="an">
<rect width="283" height="200"/>
</clipPath>
<g id="n" clip-path="url(#an)">
<path d="m204.24 19.625c-0.42188-0.16797-0.64062-0.60156-0.50781-1 0.011719-0.03125 0.019531-0.0625 0.023437-0.09375 0.011719-0.18359-0.10938-0.35156-0.30078-0.41406-0.1875-0.066407-0.39844-0.007813-0.51953 0.13672-0.023438 0.027344-0.039063 0.054688-0.050782 0.082032-0.1875 0.38672-0.66016 0.58594-1.1016 0.46484-0.035156-0.011719-0.066406-0.019531-0.10156-0.019531-0.20313-0.011719-0.38672 0.097656-0.45703 0.26953-0.070312 0.17188-0.007812 0.36719 0.15234 0.47656 0.03125 0.015625 0.058594 0.035156 0.09375 0.046875 0.42188 0.16797 0.64062 0.59766 0.50781 1-0.011718 0.027343-0.019531 0.058593-0.023437 0.089843-0.011719 0.18359 0.10938 0.35156 0.30078 0.41406 0.1875 0.066406 0.39844 0.007813 0.51953-0.13672 0.023437-0.027344 0.039062-0.054687 0.050781-0.082031 0.1875-0.38672 0.66016-0.58594 1.1016-0.46094 0.03125 0.007812 0.066407 0.015624 0.10156 0.015624 0.20312 0.011719 0.38672-0.097656 0.45703-0.26953s0.007813-0.36328-0.15234-0.47656c-0.03125-0.015625-0.058593-0.03125-0.09375-0.042969zm26.531 156.78c-0.42188-0.16797-0.64062-0.59766-0.50781-1 0.011719-0.03125 0.019531-0.058594 0.023437-0.089844 0.011719-0.18359-0.10938-0.35547-0.30078-0.41406-0.1875-0.066406-0.39844-0.007813-0.51953 0.13672-0.023438 0.027344-0.039063 0.054688-0.050782 0.082032-0.1875 0.38672-0.66016 0.58203-1.1016 0.46094-0.035156-0.007812-0.066406-0.015625-0.10156-0.015625-0.20313-0.011718-0.38672 0.097656-0.45703 0.26953-0.070312 0.17187-0.007812 0.36328 0.15234 0.47656 0.03125 0.015625 0.058594 0.03125 0.09375 0.042969 0.42188 0.16797 0.64062 0.59766 0.50781 1-0.011718 0.03125-0.019531 0.0625-0.023437 0.09375-0.011719 0.18359 0.10938 0.35156 0.30078 0.41406 0.1875 0.0625 0.39844 0.007813 0.51953-0.13672 0.023437-0.027343 0.039062-0.054687 0.050781-0.085937 0.1875-0.38281 0.66016-0.58203 1.1016-0.46094 0.03125 0.011718 0.066407 0.015624 0.10156 0.019531 0.20312 0.011719 0.38672-0.097657 0.45703-0.27344 0.070313-0.16797 0.007813-0.36328-0.15234-0.47266-0.03125-0.019531-0.058593-0.035156-0.09375-0.046875zm-217.78-131.66c-0.42188-0.16797-0.64063-0.59766-0.50781-1 0.011719-0.03125 0.019531-0.0625 0.023437-0.09375 0.011719-0.18359-0.10937-0.35156-0.30078-0.41406-0.1875-0.0625-0.39844-0.007813-0.51953 0.14062-0.023438 0.023438-0.039062 0.050782-0.050781 0.082032-0.1875 0.38281-0.66016 0.58203-1.1016 0.46094-0.035156-0.011719-0.066406-0.015625-0.10156-0.019531-0.20312-0.011719-0.38672 0.097656-0.45703 0.27344-0.070312 0.16797-0.007812 0.36328 0.15234 0.47266 0.03125 0.019531 0.058594 0.035156 0.09375 0.046875 0.42188 0.16797 0.64062 0.59766 0.50781 1-0.011719 0.03125-0.019531 0.058593-0.023438 0.089843-0.011719 0.18359 0.10938 0.35547 0.30078 0.41406 0.1875 0.066406 0.39844 0.007813 0.51953-0.13672 0.023437-0.027344 0.039062-0.054687 0.050781-0.082031 0.1875-0.38672 0.66016-0.58203 1.1016-0.46094 0.03125 0.007812 0.066406 0.015624 0.10156 0.015624 0.20312 0.011719 0.38672-0.097656 0.45703-0.26953 0.070313-0.17188 0.007813-0.36328-0.15234-0.47266-0.03125-0.019531-0.058594-0.035156-0.09375-0.046875z" fill="#4c89ef"/>
</g>
<mask id="u">
<g filter="url(#a)">
<rect width="283" height="200" fill-opacity=".50196"/>
</g>
</mask>
<clipPath id="am">
<rect width="283" height="200"/>
</clipPath>
<g id="m" clip-path="url(#am)">
<path d="m33.164 70.352c0 0.55469-0.49609 1.0039-1.1055 1.0039s-1.1055-0.44922-1.1055-1.0039c0-0.55469 0.49609-1.0039 1.1055-1.0039s1.1055 0.44922 1.1055 1.0039z" fill="#46e5b1"/>
</g>
<mask id="t">
<g filter="url(#a)">
<rect width="283" height="200" fill-opacity=".50196"/>
</g>
</mask>
<clipPath id="bc">
<rect width="283" height="200"/>
</clipPath>
<g id="l" clip-path="url(#bc)">
<path d="m246.52 83.418c0 0.55469-0.49609 1.0039-1.1055 1.0039-0.60937 0-1.1055-0.44922-1.1055-1.0039 0-0.55469 0.49609-1.0078 1.1055-1.0078 0.60938 0 1.1055 0.45312 1.1055 1.0078z" fill="#46e5b1"/>
</g>
<mask id="ai">
<g filter="url(#a)">
<rect width="283" height="200" fill-opacity=".50196"/>
</g>
</mask>
<clipPath id="bb">
<rect width="283" height="200"/>
</clipPath>
<g id="k" clip-path="url(#bb)">
<path d="m170.5 0h1.1055v3.0156h-1.1055z" fill="#46e5b1"/>
<path d="m172.34 1.2422v0.53125h-3.1328v-0.53125z" fill="#46e5b1"/>
</g>
<mask id="ah">
<g filter="url(#a)">
<rect width="283" height="200" fill-opacity=".50196"/>
</g>
</mask>
<clipPath id="ba">
<rect width="283" height="200"/>
</clipPath>
<g id="j" clip-path="url(#ba)">
<path d="m173.82 166.84h1.1055v3.0117h-1.1055z" fill="#46e5b1"/>
<path d="m175.66 168.07v0.53516h-3.1328v-0.53516z" fill="#46e5b1"/>
</g>
<mask id="ag">
<g filter="url(#a)">
<rect width="283" height="200" fill-opacity=".50196"/>
</g>
</mask>
<clipPath id="az">
<rect width="283" height="200"/>
</clipPath>
<g id="i" clip-path="url(#az)">
<path d="m16.84 175.88h1.1055v3.0156h-1.1055z" fill="#46e5b1"/>
<path d="m18.684 177.12v0.53125h-3.1328v-0.53125z" fill="#46e5b1"/>
</g>
<mask id="af">
<g filter="url(#a)">
<rect width="283" height="200" fill-opacity=".50196"/>
</g>
</mask>
<clipPath id="ay">
<rect width="283" height="200"/>
</clipPath>
<g id="h" clip-path="url(#ay)">
<path d="m204.77 100.5h1.1055v3.0156h-1.1055z" fill="#46e5b1"/>
<path d="m206.61 101.74v0.53516h-3.1328v-0.53516z" fill="#46e5b1"/>
</g>
<mask id="ae">
<g filter="url(#a)">
<rect width="283" height="200" fill-opacity=".50196"/>
</g>
</mask>
<clipPath id="ax">
<rect width="283" height="200"/>
</clipPath>
<g id="g" clip-path="url(#ax)">
<path d="m228.42 30.754 1.6562 1.2617 2.3516-2.8711 0.82812 0.57422-3.1797 3.4453-2.3477-2.1797z" fill="#46e5b1"/>
</g>
<mask id="ad">
<g filter="url(#a)">
<rect width="283" height="200" fill-opacity=".10196"/>
</g>
</mask>
<clipPath id="aw">
<rect width="283" height="200"/>
</clipPath>
<g id="f" clip-path="url(#aw)">
<path d="m199.44 82.297c-1.7969 2.9531-6.3125 6.832-8.6133 11.172-0.60156-1.957-1.3359-3.9805-1.3359-3.9805s-2.8125-13.59 5.5078-17.102c1.3828-0.12109 2.7578 0.22656 3.8711 0.97266 1.1836 3.6211 1.7461 7.0039 0.57031 8.9375z"/>
</g>
<mask id="ac">
<g filter="url(#a)">
<rect width="283" height="200" fill-opacity=".10196"/>
</g>
</mask>
<clipPath id="av">
<rect width="283" height="200"/>
</clipPath>
<g id="e" clip-path="url(#av)">
<path d="m188.91 99.496c0.21875 3.6719 1.7773 7.9219 2.3359 11.008-3.0859 2.5352-6.0195 4.7695-7.125 4.8086-2.2852 0.078125-5.957-0.19531-7.3086 0.24609-1.3555 0.44141-2.1484-7.0781-2.1484-7.0781s0.80859-2.4141 4.4102-3.7266c2.4297-0.88672 7.0898-3.2969 9.8359-5.2578z"/>
</g>
<mask id="ab">
<g filter="url(#a)">
<rect width="283" height="200" fill-opacity=".10196"/>
</g>
</mask>
<clipPath id="au">
<rect width="283" height="200"/>
</clipPath>
<g id="d" clip-path="url(#au)">
<path d="m236.57 187.94c0-6.6641-29.695-12.062-66.328-12.062-36.633 0-66.328 5.3984-66.328 12.062 0 6.6602 29.695 12.059 66.328 12.059 36.633 0 66.328-5.3984 66.328-12.059z" fill="#dc8181"/>
</g>
</defs>
<use mask="url(#ak)" xlink:href="#c"/>
<path d="m129.34 2.0117-74.066 41.52s0 85.637 74.066 132.35c74.066-46.711 74.066-132.35 74.066-132.35z" fill="#3e3d55"/>
<use mask="url(#aj)" xlink:href="#b"/>
<use mask="url(#aa)" xlink:href="#s"/>
<path d="m124.78 96.195 16.441-20.82 5.8047 4.1641-22.246 24.984-16.445-15.824 4.8359-1.6641z" fill="#dc8181"/>
<use mask="url(#z)" xlink:href="#r"/>
<use mask="url(#y)" xlink:href="#q"/>
<use mask="url(#x)" xlink:href="#p"/>
<use mask="url(#w)" xlink:href="#o"/>
<use mask="url(#v)" xlink:href="#n"/>
<use mask="url(#u)" xlink:href="#m"/>
<use mask="url(#t)" xlink:href="#l"/>
<use mask="url(#ai)" xlink:href="#k"/>
<use mask="url(#ah)" xlink:href="#j"/>
<use mask="url(#ag)" xlink:href="#i"/>
<use mask="url(#af)" xlink:href="#h"/>
<use mask="url(#ae)" xlink:href="#g"/>
<path d="m172.09 60.02 6.1133-0.21484 0.30469 7.1445-6.1133 0.21484z" fill="#dc8181"/>
<path d="m150.16 85.34s-7.6758-3.9453-7.5547-0.53516c0.125 3.4062 7.7383 5.6484 7.7383 5.6484z" fill="#ffb9b9"/>
<path d="m155.69 110.8s-3.918 8.9336-5.3633 15.379c-1.4492 6.4453-3.6523 15.316-0.81641 21.605 2.8359 6.293 10.895 24.781 10.98 26.773 0.082031 1.9961-0.69141 4.0195 1.0195 3.9609 1.7148-0.0625 11.035-2.7969 11.414-4.0117 0.37891-1.2109-3.1797-4.2773-3.1797-4.2773l-8.7891-25.656 9.168-16.715 6.6172 24.938 1.293 31.117s6.3594-1.8281 7.2812-0.26172c0 0 2.8477-3.6992 3.2109-5.3086 0.36328-1.6133-1.3438-32.32-1.3438-32.32s5.8359-34.973 1.125-34.805c-4.7109 0.17188-23.164-10.352-32.617-0.41797z" fill="#dc8181"/>
<path d="m160.3 177.55s-4.3398 8.6953-4.7539 9.0977c-0.41016 0.40234-3.2383 4.3828-1.0977 4.3086 2.1367-0.074219 7.1875-2.1914 10.902-5.4297 3.7188-3.2383 8.6172-8.8438 8.1758-9.2188-0.44531-0.37109-3.4883-1.4297-3.4883-1.4297zm18.117 5.0664s-0.26953 3.9102-1.082 5.4961c-0.80859 1.5898-0.70703 3.9219 1.4883 3.8477 2.1992-0.074219 7.875-1.0508 7.875-1.0508s0.33984-2.3477-0.11719-2.7227c-0.45703-0.375-2.4023-4.5977-1.5742-5.793 0.82812-1.1992-6.5898 0.22266-6.5898 0.22266z" fill="#565a88"/>
<path d="m182.67 53.266s5.0664 6.5703 7.043 8.0898c1.9766 1.5195-3.582 4.8672-3.582 4.8672l-9.9492 1.1133s0.125-7.5273-0.38672-8.3047c-0.51562-0.77344 6.875-5.7656 6.875-5.7656z" fill="#ffb9b9"/>
<path d="m175.19 62.121s1.8164 3.125 3.5039 3.0625c1.6836-0.0625 10.402-3.5703 10.773-4.7812 0.37109-1.207 2.8867 8.6641 2.8867 8.6641l-21.328 35.457-5.2031-3.3984 2.5195-20.816 2.0703-11.234z" fill="#dc8181"/>
<path d="m189.94 93.277c-0.875 1.6836-1.4258 3.4414-1.3516 5.2383 0.007812 0.078125 0.007812 0.15625 0.015624 0.23828 0.21094 3.6875 1.6914 7.9531 2.2227 11.055 0.38672 2.2227 0.27734 3.8477-1.1445 4.2305-3.4453 0.91797 0.50391 1.5781-12.828 5.6445-13.328 4.0625-15.656 0.55469-15.688-0.24219-0.035156-0.79688 1.8867-6.8516 1.4336-7.2344-0.44922-0.38281-6.3203 5.0156-8.0938 4.2773-1.7734-0.73438-0.20312-4.7812-0.20312-4.7812s3.9961-8.5195 3.9102-10.512c-0.082032-1.9922 6.0547-11.391 6.0547-11.391l4.1719-24.891s1.6055-3.2461 3.7617-3.7227 3.9492 0.65625 3.9492 0.65625l-3.6133 7.3125-3.8086 12.902 0.63672 4.7695s4.4297-8.5391 7.3398-11.836c2.9102-3.293 9.1133-11.098 9.1133-11.098s1.4492-4.4766 0.35547-5.8125c-1.0938-1.3438 4.5586-1.543 6.9688 3.957 1.2773 2.9141 3.3516 7.2617 4.6523 11.312 1.1602 3.5859 1.707 6.9375 0.55859 8.8516-1.7539 2.9297-6.1641 6.7773-8.4141 11.074z" fill="#565a88"/>
<use mask="url(#ad)" xlink:href="#f"/>
<path d="m165.16 81.406-6.7305 1.8789-9.3398 0.34766-0.96094 7.7695 15.352 1.0586s3.832-10.32 1.6797-11.055z" fill="#565a88"/>
<path d="m178 107.54s-9.6289 1.1172-7.4336 3.1445c2.1992 2.0273 10.73-0.10547 10.73-0.10547z" fill="#ffb9b9"/>
<use mask="url(#ac)" xlink:href="#e"/>
<path d="m194.06 70.379s7.5234-1.0508 7.1172 10.047c-0.40625 11.102 0.79297 18.184-2.2344 20.27-3.0234 2.082-12.855 11.527-15.078 11.602-2.2227 0.078125-5.7969-0.19531-7.1133 0.24609-1.3164 0.44141-2.0898-7.0508-2.0898-7.0508s0.78516-2.4023 4.293-3.7148c3.5039-1.3086 11.762-5.9453 11.691-7.5273-0.066407-1.582-2.0859-7.0547-2.0859-7.0547s-2.8125-13.363 5.5-16.816z" fill="#565a88"/>
<path d="m184.61 54.27c0 4.9961-4.4531 9.0469-9.9492 9.0469-5.4961 0-9.9492-4.0508-9.9492-9.0469 0-4.9922 4.4531-9.043 9.9492-9.043 5.4961 0 9.9492 4.0508 9.9492 9.043z" fill="#ffb9b9"/>
<path d="m167.77 41.953c-0.23828 0.18359-0.52344 0.30859-0.82812 0.36719-0.32422 0.050782-0.62891-0.13672-0.6875-0.41797-0.22656 0.41406-0.48438 0.85156-0.94531 1.0625-0.46094 0.21094-1.1758 0.035156-1.2422-0.41797-0.066406 0.34375-0.24219 0.66406-0.5 0.92969-0.28906 0.23828-0.80859 0.30078-1.0586 0.03125 0.20312 0.96875 0.078125 1.9688 0.14062 2.9531 0.0625 0.98437 0.36328 2.0312 1.2109 2.6797 1.2383 0.94141 3.0938 0.71094 4.7227 0.53125 0.24609-0.046875 0.5-0.035156 0.73828 0.035156 0.60938 0.22656 0.58203 0.97266 0.58984 1.5547 0.10156 2.1055 1.9219 3.8359 4.3047 4.0977 0.64453 0.085937 1.3047-0.054687 1.8281-0.39062 0.46484-0.34766 0.69922-0.90625 1.2266-1.1641 0.86328-0.42188 1.9062 0.19141 2.5352 0.85547 0.62891 0.66797 1.25 1.4844 2.2227 1.6055 1.2891 0.16016 2.2734-0.99219 2.7539-2.0547 1.3438-3.0078 1.2461-6.3633-0.26953-9.3086-2.6914-5.1523-11.887-5.9648-16.742-2.9492z" fill="#2f2e40"/>
<use mask="url(#ab)" xlink:href="#d"/>
</svg>
